<?xml version="1.0" encoding="utf-8"?>
<!-- Generator: Adobe Illustrator 27.5.0, SVG Export Plug-In . SVG Version: 6.00 Build 0)  -->
<svg version="1.1" xmlns="http://www.w3.org/2000/svg" xmlns:xlink="http://www.w3.org/1999/xlink" x="0px" y="0px"
	 viewBox="0 0 500 500" style="enable-background:new 0 0 500 500;" xml:space="preserve">
<g id="Background_Simple">
	<g>
		<path style="fill:#92E3A9;" d="M335.691,38.287c-44.406-6.717-90.537-3.169-132.748,12.415
			c-42.211,15.585-80.322,43.429-106.631,80.528c-15.6,21.998-27.156,50.978-16.632,75.915c4.505,10.674,12.882,20.142,13.38,31.752
			c0.672,15.654-12.857,27.535-24.38,37.897c-12.47,11.214-24.106,23.766-31.876,38.757c-7.77,14.991-11.407,32.712-7.393,49.167
			c4.229,17.337,16.47,31.681,30.615,42.219c21.686,16.156,47.844,24.566,73.484,32.716c15.913,5.058,32.709,10.166,48.995,6.545
			c18.497-4.112,32.732-18.599,48.411-29.419c25.573-17.646,57.102-26.122,87.881-23.625c19.78,1.605,39.411,7.578,59.141,5.421
			c20.443-2.235,38.983-12.998,56.077-24.65c16.557-11.286,33.616-25.525,37.19-45.506c2.591-14.485-2.584-29.34-9.894-42.038
			c-7.31-12.697-16.768-24.008-23.995-36.755c-14.151-24.959-19.124-55.188-13.737-83.49c6.142-32.267,19.866-62.053-4.996-89.382
			C397.285,53.344,365.91,42.858,335.691,38.287z"/>
		<path style="opacity:0.7;fill:#FFFFFF;" d="M335.691,38.287c-44.406-6.717-90.537-3.169-132.748,12.415
			c-42.211,15.585-80.322,43.429-106.631,80.528c-15.6,21.998-27.156,50.978-16.632,75.915c4.505,10.674,12.882,20.142,13.38,31.752
			c0.672,15.654-12.857,27.535-24.38,37.897c-12.47,11.214-24.106,23.766-31.876,38.757c-7.77,14.991-11.407,32.712-7.393,49.167
			c4.229,17.337,16.47,31.681,30.615,42.219c21.686,16.156,47.844,24.566,73.484,32.716c15.913,5.058,32.709,10.166,48.995,6.545
			c18.497-4.112,32.732-18.599,48.411-29.419c25.573-17.646,57.102-26.122,87.881-23.625c19.78,1.605,39.411,7.578,59.141,5.421
			c20.443-2.235,38.983-12.998,56.077-24.65c16.557-11.286,33.616-25.525,37.19-45.506c2.591-14.485-2.584-29.34-9.894-42.038
			c-7.31-12.697-16.768-24.008-23.995-36.755c-14.151-24.959-19.124-55.188-13.737-83.49c6.142-32.267,19.866-62.053-4.996-89.382
			C397.285,53.344,365.91,42.858,335.691,38.287z"/>
	</g>
</g>
<g id="Lab">
	<g>
		<g>
			
				<rect x="322.751" y="192.33" style="fill:none;stroke:#263238;stroke-width:0.75;stroke-linecap:round;stroke-linejoin:round;" width="7.16" height="84.56"/>
			
				<rect x="322.13" y="287.44" style="fill:none;stroke:#263238;stroke-width:0.75;stroke-linecap:round;stroke-linejoin:round;" width="7.16" height="84.57"/>
			
				<rect x="376.66" y="382.56" style="fill:none;stroke:#263238;stroke-width:0.75;stroke-linecap:round;stroke-linejoin:round;" width="7.16" height="29.86"/>
			
				<rect x="452.978" y="192.33" style="fill:none;stroke:#263238;stroke-width:0.75;stroke-linecap:round;stroke-linejoin:round;" width="7.16" height="84.56"/>
			
				<rect x="452.98" y="287.44" style="fill:none;stroke:#263238;stroke-width:0.75;stroke-linecap:round;stroke-linejoin:round;" width="7.16" height="84.57"/>
			
				<rect x="452.98" y="382.56" style="fill:none;stroke:#263238;stroke-width:0.75;stroke-linecap:round;stroke-linejoin:round;" width="7.16" height="29.86"/>
			
				<rect x="100.318" y="192.33" style="fill:none;stroke:#263238;stroke-width:0.75;stroke-linecap:round;stroke-linejoin:round;" width="7.16" height="84.56"/>
			
				<rect x="100.32" y="287.44" style="fill:none;stroke:#263238;stroke-width:0.75;stroke-linecap:round;stroke-linejoin:round;" width="7.16" height="84.57"/>
			
				<rect x="100.32" y="382.56" style="fill:none;stroke:#263238;stroke-width:0.75;stroke-linecap:round;stroke-linejoin:round;" width="7.16" height="29.86"/>
			<g>
				
					<rect x="100.32" y="372.01" style="fill:none;stroke:#263238;stroke-width:0.75;stroke-linecap:round;stroke-linejoin:round;" width="359.82" height="10.55"/>
			</g>
			<path style="fill:none;stroke:#263238;stroke-width:0.75;stroke-linecap:round;stroke-linejoin:round;" d="M460.138,276.89v10.55
				h-359.82v-10.55h26.06c1.1,0.27,2.24,0.41,3.42,0.41h16.31c1.18,0,2.32-0.14,3.42-0.41h253.5v0.41h29.17v-0.41H460.138z"/>
			<path style="fill:none;stroke:#263238;stroke-width:0.75;stroke-linecap:round;stroke-linejoin:round;" d="M149.528,276.89
				c-1.1,0.27-2.24,0.41-3.42,0.41h-16.31c-1.18,0-2.32-0.14-3.42-0.41H149.528z"/>
			
				<rect x="403.028" y="276.89" style="fill:none;stroke:#263238;stroke-width:0.75;stroke-linecap:round;stroke-linejoin:round;" width="29.17" height="0.41"/>
			
				<rect x="100.32" y="181.78" style="fill:none;stroke:#263238;stroke-width:0.75;stroke-linecap:round;stroke-linejoin:round;" width="359.82" height="10.55"/>
			
				<rect x="176.628" y="192.33" style="fill:none;stroke:#263238;stroke-width:0.75;stroke-linecap:round;stroke-linejoin:round;" width="7.17" height="84.56"/>
			
				<rect x="176.63" y="287.44" style="fill:none;stroke:#263238;stroke-width:0.75;stroke-linecap:round;stroke-linejoin:round;" width="7.17" height="84.57"/>
			
				<rect x="176.63" y="382.56" style="fill:none;stroke:#263238;stroke-width:0.75;stroke-linecap:round;stroke-linejoin:round;" width="7.17" height="29.86"/>
		</g>
		<g>
			<polygon style="fill:none;stroke:#263238;stroke-width:0.75;stroke-linecap:round;stroke-linejoin:round;" points="
				148.199,207.503 127.699,207.503 126.699,197.836 149.199,197.836 			"/>
			<path style="fill:none;stroke:#263238;stroke-width:0.75;stroke-linecap:round;stroke-linejoin:round;" d="M160.618,228.99v33.8
				c0,6.83-4.73,12.57-11.09,14.1c-1.1,0.27-2.24,0.41-3.42,0.41h-16.31c-1.18,0-2.32-0.14-3.42-0.41
				c-6.37-1.53-11.09-7.27-11.09-14.1v-33.8c0-6.2,4.66-11.31,10.66-12.01v-8.81h24v8.81
				C155.958,217.68,160.618,222.79,160.618,228.99z"/>
			<path style="fill:none;stroke:#263238;stroke-width:0.75;stroke-linecap:round;stroke-linejoin:round;" d="M155.946,206.165
				c0,0.56-0.22,1.06-0.58,1.42s-0.86,0.58-1.42,0.58h-32c-1.1,0-2-0.89-2-2c0-0.55,0.22-1.05,0.59-1.41
				c0.36-0.37,0.86-0.59,1.41-0.59h32C155.056,204.165,155.946,205.065,155.946,206.165z"/>
		</g>
		<g>
			<polygon style="fill:none;stroke:#263238;stroke-width:0.75;stroke-linecap:round;stroke-linejoin:round;" points="
				264.27,316.63 263.77,321.47 247.59,321.47 247.09,316.63 			"/>
			<path style="fill:none;stroke:#263238;stroke-width:0.75;stroke-linecap:round;stroke-linejoin:round;" d="M272.988,343.28v19.51
				c0,0.42-0.02,0.84-0.05,1.25c-0.28,3.21-2.39,5.84-5.25,6.97c-0.98,0.39-2.04,0.61-3.15,0.61h-17.7c-1.1,0-2.17-0.21-3.15-0.61
				c-2.85-1.13-4.98-3.75-5.26-6.97c-0.03-0.41-0.05-0.83-0.05-1.25v-19.51c0-5.3,3.4-9.8,8.14-11.43v-7.32h18.33v7.32
				C269.578,333.48,272.988,337.98,272.988,343.28z"/>
			<path style="fill:none;stroke:#263238;stroke-width:0.75;stroke-linecap:round;stroke-linejoin:round;" d="M269.43,322.99
				c0,0.85-0.69,1.53-1.53,1.53h-24.43c-0.85,0-1.53-0.68-1.53-1.53c0-0.84,0.68-1.52,1.53-1.52h24.43
				C268.74,321.47,269.43,322.15,269.43,322.99z"/>
		</g>
		<g>
			<path style="fill:none;stroke:#263238;stroke-width:0.75;stroke-linecap:round;stroke-linejoin:round;" d="M308.89,363.2
				c-0.1,0.34-0.22,0.67-0.35,1c-0.07,0.18-0.14,0.37-0.22,0.55c-0.41,0.95-0.91,1.85-1.51,2.69c-0.89,1.28-1.97,2.41-3.21,3.35
				c-0.81,0.62-1.79,0.95-2.79,0.95h-12.88c-0.95,0-1.88-0.27-2.64-0.84c-3.71-2.77-6.11-7.19-6.11-12.17
				c0-6.97,4.69-12.84,11.09-14.63v-12.21h8.2v12.22c2.74,0.77,5.18,2.31,7.06,4.36c0.16,0.16,0.3,0.33,0.44,0.5
				c0.4,0.46,0.76,0.94,1.09,1.45c0.89,1.34,1.57,2.83,1.99,4.42c0.27,0.98,0.43,2,0.49,3.04
				C309.64,359.74,309.4,361.53,308.89,363.2z"/>
			<path style="fill:none;stroke:#263238;stroke-width:0.75;stroke-linecap:round;stroke-linejoin:round;" d="M301.04,330.21
				c0,0.93-0.75,1.68-1.68,1.68h-9.98c-0.93,0-1.68-0.75-1.68-1.68c0-0.93,0.75-1.68,1.68-1.68h9.98
				C300.29,328.53,301.04,329.28,301.04,330.21z"/>
			<g>
				<path style="fill:none;stroke:#263238;stroke-width:0.75;stroke-linecap:round;stroke-linejoin:round;" d="M312.99,364.23
					c-0.03,0.03-0.06,0.05-0.1,0.07c-1,0.49-2.05,0.7-3.09,0.66c-0.5-0.01-1-0.08-1.48-0.21c-0.45-0.11-0.89-0.27-1.31-0.47
					c-1.91-0.91-3.44-2.66-3.91-4.88c-0.79-3.7,1.95-6.14,2.41-9.58c0.06-0.47,0.06-0.92,0.02-1.35c-0.23-2.29-1.71-4.14-2.35-6.4
					c-0.16-0.54-0.23-1.11-0.26-1.72c-0.06-1.18,0.09-2.46,0.31-3.76c0.79-5.01,2.45-10.4-3.29-12.01c-4.34-1.22-5.7,1.02-5.66,3.95
					h-1.81c-0.09-1.73,0.21-3.41,1.28-4.61c1.69-1.92,4.8-1.9,7.42-0.83c1.08,0.44,2.07,1.06,2.85,1.81
					c0.63,0.59,1.11,1.26,1.39,1.97c0.64,1.65,0.5,3.47,0.18,5.25c-0.17,0.95-0.39,1.89-0.56,2.78c-0.01,0.06-0.02,0.13-0.04,0.19
					c-0.42,2.19-0.83,4.34-0.2,6.53c0.41,1.43,1.23,2.66,1.78,4.03c0.45,1.1,0.65,2.12,0.65,3.14c0,0.54-0.06,1.09-0.16,1.63
					c-0.16,0.85-0.43,1.7-0.8,2.6c-0.08,0.19-0.16,0.39-0.25,0.58c-1.1,2.63-2.3,5.11-0.14,7.72c0.79,0.96,1.86,1.63,3.02,1.88
					c0.79,0.19,1.62,0.18,2.41-0.07c0.25-0.06,0.5-0.16,0.74-0.28C312.97,362.4,313.8,363.72,312.99,364.23z"/>
			</g>
			<path style="fill:none;stroke:#263238;stroke-width:0.75;stroke-linecap:round;stroke-linejoin:round;" d="M303.598,336.533
				c0,0-0.63,9.648-4.843,5.414C294.542,337.711,303.598,336.533,303.598,336.533z"/>
			<path style="fill:none;stroke:#263238;stroke-width:0.75;stroke-linecap:round;stroke-linejoin:round;" d="M306.106,348.241
				c0,0,8.838,3.921,3.41,6.414C304.088,357.147,306.106,348.241,306.106,348.241z"/>
			<path style="fill:none;stroke:#263238;stroke-width:0.75;stroke-linecap:round;stroke-linejoin:round;" d="M307.155,363.499
				c0,0,8.838,3.921,3.41,6.413C305.137,372.405,307.155,363.499,307.155,363.499z"/>
			<path style="fill:none;stroke:#263238;stroke-width:0.75;stroke-linecap:round;stroke-linejoin:round;" d="M310.907,363.927
				c0,0,3.887-8.853,6.4-3.435C319.821,365.911,310.907,363.927,310.907,363.927z"/>
			<path style="fill:none;stroke:#263238;stroke-width:0.75;stroke-linecap:round;stroke-linejoin:round;" d="M300.781,323.512
				c0,0,6.367-7.277,7.137-1.353C308.687,328.083,300.781,323.512,300.781,323.512z"/>
			<path style="fill:none;stroke:#263238;stroke-width:0.75;stroke-linecap:round;stroke-linejoin:round;" d="M304.648,331.893
				c0,0,9.483,1.887,4.734,5.509C304.632,341.025,304.648,331.893,304.648,331.893z"/>
		</g>
		<g>
			<path style="fill:none;stroke:#263238;stroke-width:0.75;stroke-linecap:round;stroke-linejoin:round;" d="M352.97,361.59
				c0.21,3.79-1.52,7.19-4.28,9.3c-0.58,0.44-1.28,0.68-2.01,0.68h-9.27c-0.68,0-1.36-0.2-1.9-0.6c-2.67-2-4.4-5.18-4.4-8.77
				c0-5.02,3.38-9.25,7.99-10.54v-15.21h5.9v15.22C349.4,352.91,352.71,356.88,352.97,361.59z"/>
			<path style="fill:none;stroke:#263238;stroke-width:0.75;stroke-linecap:round;stroke-linejoin:round;" d="M346.85,335.24
				c0,0.67-0.54,1.21-1.21,1.21h-7.19c-0.67,0-1.21-0.54-1.21-1.21c0-0.67,0.54-1.21,1.21-1.21h7.19
				C346.31,334.03,346.85,334.57,346.85,335.24z"/>
		</g>
		<g>
			<path style="fill:none;stroke:#263238;stroke-width:0.75;stroke-linecap:round;stroke-linejoin:round;" d="M162.418,181.78
				h-18.22c-1.84,0-2.94-2.06-1.91-3.59l8.27-12.28v-12.19h5.5v12.19l8.27,12.28C165.358,179.72,164.258,181.78,162.418,181.78z"/>
			
				<rect x="150.556" y="152.945" style="fill:none;stroke:#263238;stroke-width:0.75;stroke-linecap:round;stroke-linejoin:round;" width="5.5" height="0.77"/>
			<path style="fill:none;stroke:#263238;stroke-width:0.75;stroke-linecap:round;stroke-linejoin:round;" d="M157.786,152.585
				c0,0.63-0.5,1.13-1.13,1.13h-6.7c-0.63,0-1.13-0.5-1.13-1.13c0-0.62,0.5-1.13,1.13-1.13h6.7
				C157.286,151.455,157.786,151.965,157.786,152.585z"/>
		</g>
		<g>
			<path style="fill:none;stroke:#263238;stroke-width:0.75;stroke-linecap:round;stroke-linejoin:round;" d="M231.13,371.62h-25.74
				c-2.6,0-4.15-2.9-2.7-5.06l11.68-17.35v-17.22h7.78v17.22l11.67,17.35C235.28,368.72,233.73,371.62,231.13,371.62z"/>
			<path style="fill:none;stroke:#263238;stroke-width:0.75;stroke-linecap:round;stroke-linejoin:round;" d="M224.59,330.39
				c0,0.89-0.72,1.6-1.6,1.6h-9.46c-0.89,0-1.6-0.71-1.6-1.6c0-0.88,0.71-1.59,1.6-1.59h9.46
				C223.87,328.8,224.59,329.51,224.59,330.39z"/>
		</g>
		<g>
			<path style="fill:none;stroke:#263238;stroke-width:0.75;stroke-linecap:round;stroke-linejoin:round;" d="M299.662,144.671
				c-0.484,0-0.727,0.586-0.384,0.928l2.308,2.308v30.451c0,1.618,1.311,2.929,2.929,2.929h17.137c1.618,0,2.929-1.311,2.929-2.929
				v-33.688H299.662z"/>
		</g>
		<g>
			<path style="fill:none;stroke:#263238;stroke-width:0.75;stroke-linecap:round;stroke-linejoin:round;" d="M138.548,140.09v38.35
				c0,1.84-1.49,3.34-3.33,3.34h-19.51c-1.84,0-3.34-1.5-3.34-3.34v-34.66l-2.62-2.63c-0.39-0.39-0.12-1.06,0.43-1.06H138.548z"/>
			<g>
				<g>
					<path style="fill:none;stroke:#263238;stroke-width:0.75;stroke-linecap:round;stroke-linejoin:round;" d="M130.397,142.326
						c1.542,0,3.083,0,4.625,0c0.518,0,0.519-0.806,0-0.806c-1.542,0-3.083,0-4.625,0
						C129.878,141.52,129.878,142.326,130.397,142.326L130.397,142.326z"/>
				</g>
				<g>
					<path style="fill:none;stroke:#263238;stroke-width:0.75;stroke-linecap:round;stroke-linejoin:round;" d="M132.187,144.773
						c0.945,0,1.89,0,2.835,0c0.518,0,0.519-0.806,0-0.806c-0.945,0-1.89,0-2.835,0
						C131.669,143.968,131.668,144.773,132.187,144.773L132.187,144.773z"/>
				</g>
				<g>
					<path style="fill:none;stroke:#263238;stroke-width:0.75;stroke-linecap:round;stroke-linejoin:round;" d="M132.187,147.221
						c0.945,0,1.89,0,2.835,0c0.518,0,0.519-0.806,0-0.806c-0.945,0-1.89,0-2.835,0
						C131.669,146.415,131.668,147.221,132.187,147.221L132.187,147.221z"/>
				</g>
				<g>
					<path style="fill:none;stroke:#263238;stroke-width:0.75;stroke-linecap:round;stroke-linejoin:round;" d="M132.187,149.669
						c0.945,0,1.89,0,2.835,0c0.518,0,0.519-0.806,0-0.806c-0.945,0-1.89,0-2.835,0
						C131.669,148.863,131.668,149.669,132.187,149.669L132.187,149.669z"/>
				</g>
				<g>
					<path style="fill:none;stroke:#263238;stroke-width:0.75;stroke-linecap:round;stroke-linejoin:round;" d="M132.187,152.116
						c0.945,0,1.89,0,2.835,0c0.518,0,0.519-0.806,0-0.806c-0.945,0-1.89,0-2.835,0
						C131.669,151.311,131.668,152.116,132.187,152.116L132.187,152.116z"/>
				</g>
				<g>
					<path style="fill:none;stroke:#263238;stroke-width:0.75;stroke-linecap:round;stroke-linejoin:round;" d="M130.397,154.564
						c1.542,0,3.083,0,4.625,0c0.518,0,0.519-0.806,0-0.806c-1.542,0-3.083,0-4.625,0
						C129.878,153.758,129.878,154.564,130.397,154.564L130.397,154.564z"/>
				</g>
				<g>
					<path style="fill:none;stroke:#263238;stroke-width:0.75;stroke-linecap:round;stroke-linejoin:round;" d="M132.187,157.012
						c0.945,0,1.89,0,2.835,0c0.518,0,0.519-0.806,0-0.806c-0.945,0-1.89,0-2.835,0
						C131.669,156.206,131.668,157.012,132.187,157.012L132.187,157.012z"/>
				</g>
				<g>
					<path style="fill:none;stroke:#263238;stroke-width:0.75;stroke-linecap:round;stroke-linejoin:round;" d="M132.187,159.459
						c0.945,0,1.89,0,2.835,0c0.518,0,0.519-0.806,0-0.806c-0.945,0-1.89,0-2.835,0
						C131.669,158.654,131.668,159.459,132.187,159.459L132.187,159.459z"/>
				</g>
				<g>
					<path style="fill:none;stroke:#263238;stroke-width:0.75;stroke-linecap:round;stroke-linejoin:round;" d="M132.187,161.907
						c0.945,0,1.89,0,2.835,0c0.518,0,0.519-0.806,0-0.806c-0.945,0-1.89,0-2.835,0
						C131.669,161.101,131.668,161.907,132.187,161.907L132.187,161.907z"/>
				</g>
				<g>
					<path style="fill:none;stroke:#263238;stroke-width:0.75;stroke-linecap:round;stroke-linejoin:round;" d="M132.187,164.354
						c0.945,0,1.89,0,2.835,0c0.518,0,0.519-0.806,0-0.806c-0.945,0-1.89,0-2.835,0
						C131.669,163.549,131.668,164.354,132.187,164.354L132.187,164.354z"/>
				</g>
				<g>
					<path style="fill:none;stroke:#263238;stroke-width:0.75;stroke-linecap:round;stroke-linejoin:round;" d="M130.397,166.802
						c1.542,0,3.083,0,4.625,0c0.518,0,0.519-0.806,0-0.806c-1.542,0-3.083,0-4.625,0
						C129.878,165.996,129.878,166.802,130.397,166.802L130.397,166.802z"/>
				</g>
				<g>
					<path style="fill:none;stroke:#263238;stroke-width:0.75;stroke-linecap:round;stroke-linejoin:round;" d="M132.187,169.25
						c0.945,0,1.89,0,2.835,0c0.518,0,0.519-0.806,0-0.806c-0.945,0-1.89,0-2.835,0C131.669,168.444,131.668,169.25,132.187,169.25
						L132.187,169.25z"/>
				</g>
				<g>
					<path style="fill:none;stroke:#263238;stroke-width:0.75;stroke-linecap:round;stroke-linejoin:round;" d="M132.187,171.697
						c0.945,0,1.89,0,2.835,0c0.518,0,0.519-0.806,0-0.806c-0.945,0-1.89,0-2.835,0
						C131.669,170.892,131.668,171.697,132.187,171.697L132.187,171.697z"/>
				</g>
				<g>
					<path style="fill:none;stroke:#263238;stroke-width:0.75;stroke-linecap:round;stroke-linejoin:round;" d="M132.187,174.145
						c0.945,0,1.89,0,2.835,0c0.518,0,0.519-0.806,0-0.806c-0.945,0-1.89,0-2.835,0
						C131.669,173.339,131.668,174.145,132.187,174.145L132.187,174.145z"/>
				</g>
				<g>
					<path style="fill:none;stroke:#263238;stroke-width:0.75;stroke-linecap:round;stroke-linejoin:round;" d="M132.187,176.592
						c0.945,0,1.89,0,2.835,0c0.518,0,0.519-0.806,0-0.806c-0.945,0-1.89,0-2.835,0
						C131.669,175.787,131.668,176.592,132.187,176.592L132.187,176.592z"/>
				</g>
				<g>
					<path style="fill:none;stroke:#263238;stroke-width:0.75;stroke-linecap:round;stroke-linejoin:round;" d="M130.397,179.04
						c1.542,0,3.083,0,4.625,0c0.518,0,0.519-0.806,0-0.806c-1.542,0-3.083,0-4.625,0
						C129.878,178.234,129.878,179.04,130.397,179.04L130.397,179.04z"/>
				</g>
			</g>
		</g>
		<g>
			<g>
				<g>
					
						<rect x="402.58" y="147.45" style="fill:none;stroke:#263238;stroke-width:0.75;stroke-linecap:round;stroke-linejoin:round;" width="5.71" height="1.7"/>
					<path style="fill:none;stroke:#263238;stroke-width:0.75;stroke-linecap:round;stroke-linejoin:round;" d="M402.58,151.8h5.71
						v18.01c0,1.57-1.28,2.85-2.86,2.85c-1.57,0-2.85-1.28-2.85-2.85V151.8z"/>
					<path style="fill:none;stroke:#263238;stroke-width:0.75;stroke-linecap:round;stroke-linejoin:round;" d="M410.08,146.28
						c0,0.65-0.52,1.17-1.17,1.17h-6.95c-0.65,0-1.17-0.52-1.17-1.17s0.52-1.17,1.17-1.17h6.95
						C409.56,145.11,410.08,145.63,410.08,146.28z"/>
				</g>
				<g>
					
						<rect x="414.97" y="147.45" style="fill:none;stroke:#263238;stroke-width:0.75;stroke-linecap:round;stroke-linejoin:round;" width="5.71" height="1.7"/>
					<path style="fill:none;stroke:#263238;stroke-width:0.75;stroke-linecap:round;stroke-linejoin:round;" d="M414.97,151.8h5.71
						v18.01c0,1.57-1.28,2.85-2.85,2.85c-1.58,0-2.86-1.28-2.86-2.85V151.8z"/>
					<path style="fill:none;stroke:#263238;stroke-width:0.75;stroke-linecap:round;stroke-linejoin:round;" d="M422.47,146.28
						c0,0.65-0.52,1.17-1.17,1.17h-6.95c-0.65,0-1.17-0.52-1.17-1.17s0.52-1.17,1.17-1.17h6.95
						C421.95,145.11,422.47,145.63,422.47,146.28z"/>
				</g>
				<g>
					<path style="fill:none;stroke:#263238;stroke-width:0.75;stroke-linecap:round;stroke-linejoin:round;" d="M434.87,146.28
						c0,0.65-0.53,1.17-1.17,1.17h-6.96c-0.64,0-1.17-0.52-1.17-1.17s0.53-1.17,1.17-1.17h6.96
						C434.34,145.11,434.87,145.63,434.87,146.28z"/>
					
						<rect x="427.37" y="147.45" style="fill:none;stroke:#263238;stroke-width:0.75;stroke-linecap:round;stroke-linejoin:round;" width="5.7" height="1.7"/>
					<path style="fill:none;stroke:#263238;stroke-width:0.75;stroke-linecap:round;stroke-linejoin:round;" d="M427.37,151.8h5.7
						v18.01c0,1.57-1.27,2.85-2.85,2.85s-2.85-1.28-2.85-2.85V151.8z"/>
				</g>
				<g>
					
						<rect x="439.76" y="147.45" style="fill:none;stroke:#263238;stroke-width:0.75;stroke-linecap:round;stroke-linejoin:round;" width="5.71" height="1.7"/>
					<path style="fill:none;stroke:#263238;stroke-width:0.75;stroke-linecap:round;stroke-linejoin:round;" d="M439.76,151.8h5.71
						v18.01c0,1.57-1.28,2.85-2.86,2.85c-1.57,0-2.85-1.28-2.85-2.85V151.8z"/>
					<path style="fill:none;stroke:#263238;stroke-width:0.75;stroke-linecap:round;stroke-linejoin:round;" d="M447.26,146.28
						c0,0.65-0.52,1.17-1.17,1.17h-6.95c-0.65,0-1.17-0.52-1.17-1.17s0.52-1.17,1.17-1.17h6.95
						C446.74,145.11,447.26,145.63,447.26,146.28z"/>
				</g>
			</g>
			<path style="fill:none;stroke:#263238;stroke-width:0.75;stroke-linecap:round;stroke-linejoin:round;" d="M396.19,149.15v32.63
				h2.66v-3.26h50.35v3.26h2.66v-32.63H396.19z M449.2,175.86h-50.35V151.8h50.35V175.86z"/>
		</g>
		<g>
			<polygon style="fill:none;stroke:#263238;stroke-width:0.75;stroke-linecap:round;stroke-linejoin:round;" points="
				366.428,181.78 323.648,181.78 345.038,153.39 			"/>
			<polygon style="fill:none;stroke:#263238;stroke-width:0.75;stroke-linecap:round;stroke-linejoin:round;" points="
				366.428,181.78 345.038,181.78 345.038,153.39 			"/>
		</g>
		<g>
			<polygon style="fill:none;stroke:#263238;stroke-width:0.75;stroke-linecap:round;stroke-linejoin:round;" points="
				448.206,371.615 395.276,371.615 421.736,336.495 			"/>
		</g>
		<g>
			<path style="fill:none;stroke:#263238;stroke-width:0.75;stroke-linecap:round;stroke-linejoin:round;" d="M154.46,337.83
				c0,6.12-4.33,11.23-10.09,12.42c-0.84,0.18-1.71,0.27-2.6,0.27s-1.76-0.09-2.6-0.27c-5.76-1.2-10.08-6.3-10.08-12.42
				c0-7,5.68-12.69,12.68-12.69C148.78,325.14,154.46,330.83,154.46,337.83z"/>
			<path style="fill:none;stroke:#263238;stroke-width:0.75;stroke-linecap:round;stroke-linejoin:round;" d="M169.11,341.87v9.97
				c0,2.36-1.92,4.28-4.28,4.28h-20.19l0.55,11.91h7.52c1.98,0,3.61,1.6,3.65,3.57v0.41h-29.17v-0.41c0.04-1.97,1.67-3.57,3.65-3.57
				h7.52l0.81-17.78c0.84,0.18,1.71,0.27,2.6,0.27s1.76-0.09,2.6-0.27l0.18,3.87h20.28c1.26,0,2.28-1.02,2.28-2.28v-9.97
				c0.32,0.09,0.65,0.13,1,0.13S168.79,341.96,169.11,341.87z"/>
			<path style="fill:none;stroke:#263238;stroke-width:0.75;stroke-linecap:round;stroke-linejoin:round;" d="M172.28,337.83
				c0,1.95-1.35,3.6-3.17,4.04c-0.32,0.09-0.65,0.13-1,0.13s-0.68-0.04-1-0.13c-1.82-0.44-3.17-2.09-3.17-4.04
				c0-2.3,1.87-4.17,4.17-4.17S172.28,335.53,172.28,337.83z"/>
		</g>
	</g>
</g>
<g id="Board">
	<g>
		<g>
			<g>
				
					<rect x="60.618" y="79.743" style="fill:#FFFFFF;stroke:#263238;stroke-linecap:round;stroke-linejoin:round;" width="271.082" height="185.915"/>
			</g>
		</g>
		<g>
			<g>
				
					<rect x="66.081" y="85.949" style="fill:#263238;stroke:#263238;stroke-linecap:round;stroke-linejoin:round;" width="259.63" height="173.533"/>
			</g>
		</g>
		<path style="fill:#FFFFFF;stroke:#263238;stroke-linecap:round;stroke-linejoin:round;" d="M339.799,174.334
			c-1.503,0-2.72,1.218-2.72,2.72v101.487H55.852V177.409c0-1.503-1.218-2.721-2.72-2.721c-1.503,0-2.721,1.218-2.721,2.721V425.71
			c0,1.503,1.218,2.72,2.721,2.72h286.668c1.503,0,2.72-1.218,2.72-2.72V177.054C342.52,175.552,341.302,174.334,339.799,174.334z
			 M337.079,422.989H55.852V283.982h281.227V422.989z"/>
		
			<rect x="55.852" y="176.174" style="fill:#263238;stroke:#263238;stroke-linecap:round;stroke-linejoin:round;" width="4.766" height="11.328"/>
		
			<rect x="331.913" y="176.174" style="fill:#263238;stroke:#263238;stroke-linecap:round;stroke-linejoin:round;" width="4.766" height="11.328"/>
	</g>
</g>
<g id="Graphics">
	<g>
		<g>
			<g>
				<g>
					<path style="fill:#FFFFFF;" d="M193.693,145.491c-0.078,0.211-0.169,0.421-0.273,0.63s-0.206,0.419-0.308,0.63
						c-0.164,0.332-0.364,0.654-0.601,0.967s-0.507,0.604-0.811,0.873c-0.141,0.137-0.294,0.266-0.46,0.387
						c-0.166,0.121-0.336,0.226-0.51,0.314c-0.174,0.088-0.349,0.156-0.525,0.205c-0.176,0.049-0.348,0.069-0.516,0.062
						c-0.227,0.008-0.434-0.021-0.621-0.085c-0.188-0.064-0.352-0.156-0.492-0.275c-0.141-0.119-0.257-0.26-0.349-0.422
						c-0.092-0.162-0.157-0.337-0.196-0.524c-0.102-0.367-0.128-0.761-0.079-1.181c0.049-0.42,0.147-0.843,0.296-1.268
						c0.184-0.512,0.435-1.013,0.753-1.503c0.318-0.49,0.708-0.936,1.169-1.339c0.219-0.207,0.456-0.392,0.712-0.554
						c0.256-0.162,0.519-0.296,0.788-0.401s0.538-0.181,0.806-0.226c0.268-0.045,0.522-0.056,0.765-0.032
						c0.094,0.004,0.188,0.017,0.284,0.038c0.096,0.021,0.179,0.057,0.249,0.105c0.07,0.049,0.121,0.112,0.152,0.191
						c0.031,0.078,0.029,0.174-0.006,0.287c-0.016,0.039-0.032,0.082-0.05,0.129c-0.018,0.047-0.039,0.092-0.064,0.135
						c-0.025,0.043-0.058,0.079-0.097,0.108c-0.039,0.029-0.086,0.046-0.141,0.05c-0.031-0.008-0.061-0.015-0.091-0.02
						c-0.029-0.006-0.062-0.009-0.097-0.009c-0.199-0.023-0.41-0.018-0.633,0.015c-0.223,0.033-0.445,0.093-0.668,0.179
						c-0.223,0.086-0.441,0.196-0.656,0.331c-0.215,0.135-0.412,0.292-0.592,0.472c-0.383,0.363-0.696,0.758-0.94,1.184
						c-0.244,0.426-0.444,0.855-0.601,1.289c-0.059,0.148-0.11,0.305-0.155,0.469c-0.045,0.164-0.077,0.328-0.097,0.492
						c-0.02,0.164-0.023,0.32-0.012,0.469c0.012,0.148,0.049,0.279,0.111,0.393c0.063,0.113,0.151,0.204,0.267,0.272
						c0.115,0.068,0.267,0.103,0.454,0.103c0.199,0.012,0.403-0.031,0.612-0.129c0.209-0.098,0.401-0.225,0.577-0.381
						c0.168-0.16,0.317-0.332,0.448-0.516c0.131-0.184,0.239-0.375,0.325-0.574c0.059-0.102,0.106-0.204,0.144-0.308
						c0.037-0.104,0.079-0.206,0.126-0.308c0.031-0.09,0.06-0.181,0.085-0.272c0.025-0.092,0.046-0.183,0.062-0.272
						c-0.102,0.008-0.205,0.018-0.311,0.032s-0.215,0.038-0.328,0.073c-0.109,0.02-0.218,0.041-0.325,0.064
						c-0.107,0.023-0.212,0.031-0.313,0.023c-0.082,0.008-0.151-0.001-0.208-0.026c-0.057-0.025-0.1-0.063-0.129-0.111
						c-0.029-0.049-0.044-0.107-0.044-0.173c0-0.066,0.018-0.137,0.053-0.211l0.035-0.1l0.065-0.1l0.006-0.018
						c0.066-0.078,0.145-0.14,0.234-0.185c0.09-0.045,0.18-0.087,0.27-0.126c0.164-0.059,0.329-0.119,0.495-0.182
						s0.332-0.12,0.498-0.173c0.166-0.053,0.33-0.097,0.492-0.132c0.162-0.035,0.323-0.053,0.483-0.053
						c0.191,0.023,0.34,0.101,0.445,0.234c0.105,0.133,0.154,0.293,0.146,0.48c-0.008,0.082-0.02,0.165-0.035,0.249
						C193.753,145.32,193.728,145.405,193.693,145.491z"/>
					<path style="fill:#FFFFFF;" d="M198.38,146.628c-0.039,0.074-0.089,0.138-0.149,0.191c-0.061,0.053-0.127,0.097-0.199,0.132
						c-0.072,0.035-0.146,0.062-0.223,0.079c-0.076,0.018-0.146,0.028-0.208,0.032c-0.453,0.031-0.9,0.045-1.342,0.041
						c-0.441-0.004-0.877-0.021-1.307-0.053c-0.074-0.004-0.139-0.021-0.193-0.053c-0.055-0.031-0.098-0.073-0.129-0.126
						c-0.031-0.053-0.052-0.112-0.062-0.179c-0.01-0.066-0.005-0.135,0.015-0.205c0.008-0.055,0.03-0.104,0.067-0.146
						c0.037-0.043,0.08-0.08,0.129-0.111c0.049-0.031,0.102-0.058,0.158-0.079c0.057-0.021,0.11-0.038,0.161-0.05
						c0.188-0.031,0.352-0.053,0.492-0.064c0.141-0.012,0.273-0.014,0.398-0.006c0.086,0,0.171,0.003,0.255,0.009
						c0.084,0.006,0.167,0.013,0.249,0.021c0.168,0.012,0.34,0.018,0.516,0.018c0.051,0,0.099,0.002,0.144,0.006
						c0.045,0.004,0.095,0.002,0.149-0.006c0.043-0.004,0.089-0.008,0.138-0.012c0.049-0.004,0.097-0.002,0.144,0.006
						c0.094-0.004,0.2-0.002,0.319,0.006c0.119,0.008,0.225,0.03,0.316,0.067c0.092,0.037,0.157,0.094,0.196,0.17
						C198.455,146.391,198.443,146.495,198.38,146.628z M199.13,144.747c-0.012,0.07-0.04,0.133-0.085,0.188s-0.098,0.1-0.158,0.135
						c-0.061,0.035-0.125,0.061-0.193,0.076c-0.068,0.016-0.132,0.02-0.19,0.012c-0.496-0.016-0.991-0.021-1.485-0.018
						c-0.494,0.004-0.993,0.01-1.497,0.018c-0.066,0.004-0.122-0.009-0.167-0.038c-0.045-0.029-0.077-0.068-0.097-0.117
						c-0.02-0.049-0.026-0.104-0.02-0.167c0.006-0.063,0.024-0.127,0.056-0.193c0.09-0.125,0.195-0.223,0.316-0.293
						c0.121-0.07,0.249-0.123,0.384-0.158c0.135-0.035,0.27-0.058,0.404-0.067c0.135-0.01,0.259-0.021,0.372-0.032
						c0.082,0,0.16,0,0.234,0c0.078,0,0.158,0.004,0.24,0.012c0.074,0.004,0.15,0.008,0.229,0.012
						c0.078,0.004,0.158,0.006,0.24,0.006c0.051-0.008,0.102-0.007,0.152,0.003c0.051,0.01,0.104,0.013,0.158,0.009
						c0.051-0.012,0.102-0.014,0.152-0.006c0.051,0.008,0.104,0.01,0.158,0.006c0.098,0,0.198,0.011,0.302,0.032
						c0.104,0.021,0.195,0.056,0.275,0.103c0.08,0.047,0.142,0.109,0.185,0.188S199.15,144.63,199.13,144.747z"/>
					<path style="fill:#FFFFFF;" d="M209.613,144.442c-0.172,0.492-0.401,0.977-0.688,1.453c-0.287,0.477-0.587,0.947-0.899,1.412
						c-0.16,0.195-0.317,0.403-0.472,0.624c-0.154,0.221-0.317,0.435-0.489,0.642c-0.172,0.207-0.357,0.398-0.554,0.571
						c-0.197,0.174-0.417,0.31-0.659,0.407c-0.113,0.016-0.194-0.015-0.243-0.091c-0.049-0.076-0.048-0.171,0.003-0.284l0.064-0.158
						c0.008-0.023,0.018-0.05,0.029-0.079c0.012-0.029,0.021-0.056,0.029-0.079c0.188-0.336,0.405-0.659,0.653-0.97
						c0.248-0.311,0.493-0.624,0.735-0.94c0.184-0.227,0.355-0.457,0.516-0.691c0.16-0.234,0.303-0.475,0.428-0.721
						c-0.164,0.172-0.342,0.321-0.533,0.448c-0.191,0.127-0.391,0.235-0.598,0.325c-0.211,0.086-0.424,0.159-0.639,0.22
						c-0.215,0.061-0.422,0.087-0.621,0.079c-0.246,0-0.47-0.048-0.671-0.144s-0.345-0.241-0.431-0.436
						c-0.086-0.188-0.115-0.399-0.088-0.636c0.027-0.236,0.084-0.472,0.17-0.706c0.098-0.266,0.229-0.529,0.393-0.791
						c0.164-0.262,0.352-0.51,0.563-0.744c0.211-0.234,0.443-0.448,0.697-0.642c0.254-0.193,0.521-0.356,0.803-0.489
						c0.203-0.102,0.404-0.178,0.604-0.229c0.199-0.051,0.392-0.076,0.58-0.076c0.168,0,0.323,0.022,0.466,0.067
						c0.143,0.045,0.27,0.108,0.384,0.19c0.113,0.082,0.211,0.179,0.293,0.29c0.082,0.111,0.146,0.233,0.193,0.366
						c0.105,0.258,0.155,0.542,0.149,0.853C209.774,143.795,209.718,144.114,209.613,144.442z M208.576,143.61
						c0.043-0.109,0.052-0.201,0.026-0.275c-0.025-0.074-0.07-0.133-0.135-0.176c-0.064-0.043-0.143-0.074-0.234-0.094
						c-0.092-0.02-0.183-0.027-0.273-0.023c-0.223-0.02-0.449,0.015-0.68,0.102c-0.23,0.088-0.447,0.211-0.65,0.369
						c-0.203,0.158-0.382,0.342-0.536,0.551c-0.154,0.209-0.265,0.425-0.331,0.647c-0.039,0.094-0.068,0.191-0.088,0.293
						c-0.02,0.102-0.022,0.195-0.009,0.281c0.014,0.086,0.05,0.155,0.108,0.208c0.059,0.053,0.144,0.075,0.258,0.067
						c0.184,0.004,0.371-0.037,0.563-0.123c0.191-0.086,0.375-0.18,0.551-0.281c0.176-0.102,0.34-0.214,0.492-0.337
						c0.152-0.123,0.297-0.263,0.434-0.419c0.102-0.125,0.198-0.253,0.29-0.384C208.454,143.887,208.525,143.751,208.576,143.61z"/>
					<path style="fill:#FFFFFF;" d="M209.636,148.708c-0.035,0.109-0.084,0.216-0.146,0.319c-0.063,0.104-0.134,0.203-0.214,0.299
						c-0.08,0.096-0.166,0.188-0.258,0.278c-0.092,0.09-0.183,0.178-0.273,0.264c-0.07,0.063-0.143,0.128-0.217,0.196
						c-0.074,0.068-0.15,0.133-0.229,0.193c-0.078,0.061-0.16,0.112-0.246,0.155c-0.086,0.043-0.172,0.072-0.258,0.088
						c-0.031-0.008-0.061-0.012-0.088-0.012c-0.023,0-0.051-0.004-0.082-0.012c-0.09-0.02-0.139-0.071-0.146-0.155
						s0.002-0.169,0.029-0.255c0.074-0.215,0.192-0.421,0.355-0.618c0.162-0.197,0.327-0.39,0.495-0.577
						c0.078-0.082,0.161-0.17,0.249-0.264c0.088-0.094,0.18-0.182,0.275-0.264c0.096-0.082,0.195-0.152,0.299-0.211
						c0.104-0.059,0.212-0.094,0.325-0.105c0.059,0.008,0.105,0.027,0.141,0.059c0.035,0.031,0.06,0.071,0.073,0.12
						c0.014,0.049,0.018,0.102,0.012,0.158c-0.006,0.057-0.021,0.114-0.044,0.173c-0.008,0.031-0.016,0.06-0.023,0.085
						C209.658,148.648,209.648,148.677,209.636,148.708z"/>
					<path style="fill:#FFFFFF;" d="M217.001,143.839c-0.051,0.211-0.143,0.412-0.275,0.604c-0.133,0.191-0.29,0.366-0.472,0.524
						c-0.182,0.158-0.379,0.296-0.592,0.413c-0.213,0.117-0.425,0.207-0.636,0.27c0.148,0.066,0.282,0.152,0.401,0.258
						c0.119,0.105,0.212,0.23,0.278,0.372c0.066,0.143,0.102,0.3,0.105,0.472c0.004,0.172-0.037,0.355-0.123,0.551
						c-0.121,0.293-0.298,0.574-0.53,0.844c-0.232,0.27-0.489,0.508-0.77,0.715c-0.141,0.105-0.287,0.202-0.439,0.29
						c-0.152,0.088-0.307,0.163-0.463,0.226c-0.156,0.063-0.313,0.11-0.469,0.143c-0.156,0.033-0.309,0.046-0.457,0.038
						c-0.277,0-0.528-0.05-0.753-0.149c-0.225-0.1-0.407-0.245-0.548-0.437c-0.148-0.184-0.243-0.399-0.284-0.647
						c-0.041-0.248-0.013-0.513,0.085-0.794c0.059-0.191,0.152-0.381,0.281-0.568s0.285-0.355,0.469-0.504
						c0.191-0.16,0.396-0.302,0.612-0.425c0.217-0.123,0.438-0.218,0.665-0.284c-0.16-0.051-0.31-0.126-0.448-0.226
						c-0.139-0.1-0.25-0.218-0.334-0.355c-0.084-0.137-0.133-0.292-0.146-0.466c-0.014-0.174,0.026-0.364,0.12-0.571
						c0.125-0.313,0.311-0.607,0.557-0.885c0.246-0.277,0.518-0.527,0.814-0.75c0.145-0.117,0.297-0.224,0.457-0.319
						c0.16-0.096,0.323-0.178,0.489-0.246c0.166-0.068,0.332-0.121,0.498-0.158c0.166-0.037,0.327-0.056,0.483-0.056
						c0.281,0,0.526,0.061,0.735,0.184c0.209,0.123,0.374,0.288,0.495,0.495c0.125,0.191,0.211,0.409,0.258,0.653
						C217.113,143.295,217.091,143.558,217.001,143.839z M214.277,147.548c0.039-0.109,0.054-0.216,0.044-0.319
						s-0.04-0.195-0.091-0.275c-0.051-0.08-0.12-0.143-0.208-0.188c-0.088-0.045-0.189-0.067-0.302-0.067
						c-0.137,0-0.277,0.027-0.422,0.082c-0.145,0.055-0.285,0.127-0.422,0.217c-0.125,0.082-0.24,0.177-0.346,0.284
						c-0.105,0.107-0.176,0.228-0.211,0.36c-0.043,0.105-0.049,0.201-0.018,0.287c0.031,0.086,0.08,0.156,0.146,0.211
						c0.078,0.055,0.165,0.095,0.261,0.12c0.096,0.025,0.196,0.038,0.302,0.038c0.113,0.008,0.235-0.003,0.366-0.032
						c0.131-0.029,0.259-0.075,0.384-0.138c0.113-0.07,0.219-0.155,0.316-0.255C214.175,147.773,214.242,147.665,214.277,147.548z
						 M215.701,143.64c0.035-0.098,0.052-0.195,0.05-0.293c-0.002-0.098-0.022-0.185-0.061-0.261
						c-0.039-0.076-0.094-0.138-0.164-0.185c-0.07-0.047-0.158-0.07-0.264-0.07c-0.148,0.004-0.297,0.036-0.445,0.097
						c-0.148,0.061-0.291,0.142-0.428,0.243c-0.125,0.094-0.244,0.204-0.357,0.331c-0.113,0.127-0.197,0.259-0.252,0.396
						c-0.047,0.109-0.068,0.216-0.064,0.319c0.004,0.104,0.028,0.195,0.073,0.275c0.045,0.08,0.108,0.143,0.19,0.188
						c0.082,0.045,0.18,0.065,0.293,0.061c0.145,0.004,0.291-0.03,0.439-0.102c0.149-0.072,0.287-0.159,0.416-0.261
						c0.121-0.105,0.235-0.22,0.343-0.343C215.577,143.912,215.654,143.78,215.701,143.64z"/>
					<path style="fill:#FFFFFF;" d="M227.279,148.591c-0.035,0.07-0.073,0.145-0.114,0.226c-0.041,0.08-0.088,0.156-0.141,0.229
						c-0.053,0.072-0.113,0.139-0.182,0.199c-0.068,0.061-0.146,0.108-0.232,0.144c-0.09,0.012-0.169,0.005-0.237-0.02
						c-0.068-0.025-0.126-0.062-0.173-0.108c-0.047-0.047-0.083-0.104-0.108-0.17c-0.025-0.066-0.036-0.139-0.032-0.217
						c0.008-0.105,0.032-0.215,0.073-0.328c0.041-0.113,0.079-0.225,0.114-0.334c0.117-0.316,0.232-0.63,0.346-0.941
						c0.113-0.311,0.213-0.624,0.299-0.94c0.09-0.316,0.172-0.633,0.246-0.949c0.074-0.316,0.111-0.627,0.111-0.932
						c-0.504,0.852-1.041,1.686-1.611,2.502c-0.125,0.164-0.247,0.335-0.366,0.513c-0.119,0.178-0.242,0.352-0.369,0.521
						c-0.127,0.17-0.262,0.332-0.404,0.486c-0.142,0.154-0.302,0.294-0.477,0.419c-0.078-0.004-0.142-0.023-0.19-0.059
						c-0.049-0.035-0.088-0.081-0.117-0.138c-0.029-0.057-0.051-0.118-0.064-0.185c-0.014-0.066-0.022-0.133-0.026-0.199
						c0.004-0.293,0.019-0.587,0.044-0.882c0.025-0.295,0.054-0.591,0.085-0.888c0.02-0.297,0.039-0.594,0.059-0.891
						c0.02-0.297,0.014-0.586-0.018-0.867c-0.199,0.371-0.372,0.742-0.519,1.113c-0.146,0.371-0.284,0.746-0.413,1.125
						c-0.047,0.137-0.084,0.27-0.111,0.398c-0.027,0.129-0.057,0.262-0.088,0.398c-0.02,0.133-0.047,0.266-0.082,0.398
						c-0.035,0.133-0.074,0.264-0.117,0.393c-0.019,0.066-0.042,0.132-0.067,0.196c-0.025,0.064-0.054,0.13-0.085,0.196
						l-0.053,0.111l-0.047,0.088l-0.07,0.082c-0.055,0.027-0.1,0.046-0.138,0.056c-0.037,0.01-0.072,0.017-0.105,0.02
						c-0.033,0.004-0.064,0.005-0.091,0.003c-0.027-0.002-0.057-0.003-0.088-0.003c-0.059-0.016-0.115-0.032-0.17-0.05
						c-0.055-0.018-0.094-0.054-0.117-0.108c-0.051-0.098-0.07-0.219-0.059-0.363c-0.012-0.305,0.022-0.618,0.103-0.94
						s0.171-0.648,0.272-0.976c0.168-0.527,0.364-1.056,0.589-1.585c0.225-0.529,0.472-1.056,0.741-1.579
						c0.066-0.109,0.127-0.22,0.182-0.331s0.111-0.224,0.17-0.337c0.078-0.109,0.151-0.221,0.22-0.334
						c0.068-0.113,0.142-0.223,0.22-0.328c0.051-0.063,0.107-0.128,0.17-0.196c0.063-0.068,0.128-0.131,0.196-0.188
						c0.068-0.057,0.141-0.105,0.217-0.146c0.076-0.041,0.155-0.067,0.237-0.079c0.086-0.016,0.158-0.009,0.217,0.021
						c0.059,0.029,0.105,0.071,0.138,0.126c0.033,0.055,0.057,0.117,0.07,0.188c0.014,0.07,0.018,0.141,0.015,0.211
						c-0.004,0.656-0.03,1.317-0.079,1.983c-0.049,0.666-0.136,1.345-0.261,2.036c0.164-0.191,0.317-0.388,0.46-0.589
						c0.143-0.201,0.282-0.401,0.419-0.601c0.227-0.328,0.448-0.653,0.665-0.976c0.217-0.322,0.446-0.645,0.689-0.97
						c0.094-0.137,0.19-0.268,0.29-0.393c0.1-0.125,0.202-0.254,0.308-0.387c0.074-0.07,0.143-0.142,0.208-0.214
						c0.064-0.072,0.128-0.138,0.19-0.196c0.063-0.059,0.125-0.106,0.188-0.144c0.063-0.037,0.127-0.056,0.193-0.056
						c0.164,0.043,0.291,0.114,0.381,0.214c0.09,0.1,0.153,0.219,0.19,0.357s0.053,0.29,0.047,0.454
						c-0.006,0.164-0.025,0.332-0.059,0.504c-0.033,0.172-0.073,0.344-0.12,0.516c-0.047,0.172-0.092,0.334-0.135,0.486
						c-0.043,0.137-0.093,0.271-0.149,0.404c-0.057,0.133-0.108,0.268-0.155,0.404c-0.058,0.137-0.114,0.271-0.167,0.404
						c-0.053,0.133-0.107,0.268-0.161,0.404c-0.043,0.156-0.083,0.312-0.12,0.466c-0.037,0.154-0.077,0.309-0.12,0.466
						c-0.07,0.277-0.149,0.553-0.237,0.826C227.504,148.038,227.4,148.314,227.279,148.591z"/>
					<path style="fill:#FFFFFF;" d="M234.849,141.782c-0.043,0.129-0.104,0.252-0.182,0.369s-0.16,0.236-0.246,0.357
						c-0.102,0.133-0.201,0.264-0.299,0.393c-0.098,0.129-0.197,0.256-0.299,0.381c-0.676,0.906-1.368,1.798-2.077,2.675
						c-0.709,0.877-1.44,1.751-2.194,2.622c-0.094,0.09-0.19,0.19-0.29,0.302c-0.1,0.111-0.202,0.217-0.308,0.316
						c-0.105,0.1-0.217,0.183-0.334,0.249c-0.117,0.066-0.24,0.102-0.369,0.105c-0.07-0.016-0.117-0.058-0.141-0.126
						c-0.023-0.068-0.02-0.14,0.012-0.214c0.074-0.219,0.181-0.43,0.319-0.633s0.282-0.402,0.431-0.598
						c0.176-0.227,0.351-0.447,0.524-0.662c0.174-0.215,0.349-0.436,0.524-0.662c0.207-0.273,0.419-0.546,0.636-0.817
						c0.217-0.271,0.429-0.544,0.636-0.817c0.328-0.402,0.659-0.803,0.993-1.201c0.334-0.398,0.679-0.789,1.034-1.172
						c0.121-0.121,0.234-0.244,0.34-0.369c0.105-0.125,0.217-0.246,0.334-0.363c0.051-0.047,0.107-0.095,0.17-0.144
						c0.063-0.049,0.127-0.092,0.193-0.129s0.133-0.063,0.199-0.079c0.066-0.016,0.129-0.014,0.188,0.006
						c0.023,0.012,0.049,0.022,0.076,0.032c0.027,0.01,0.052,0.021,0.073,0.035c0.021,0.014,0.038,0.032,0.05,0.056
						C234.855,141.718,234.857,141.747,234.849,141.782z"/>
					<path style="fill:#FFFFFF;" d="M239.091,146.727c-0.141,0.355-0.329,0.697-0.565,1.025c-0.236,0.328-0.515,0.631-0.835,0.908
						c-0.156,0.137-0.323,0.261-0.501,0.372c-0.178,0.111-0.359,0.207-0.545,0.287c-0.186,0.08-0.372,0.141-0.56,0.182
						c-0.188,0.041-0.369,0.059-0.545,0.056c-0.258-0.004-0.502-0.04-0.732-0.108c-0.23-0.068-0.439-0.165-0.627-0.29
						c-0.09-0.055-0.178-0.117-0.264-0.188c-0.086-0.07-0.159-0.149-0.22-0.237c-0.061-0.088-0.103-0.186-0.126-0.293
						c-0.023-0.107-0.016-0.228,0.023-0.36c0.008-0.043,0.024-0.087,0.05-0.132c0.025-0.045,0.058-0.085,0.097-0.12
						c0.039-0.035,0.081-0.063,0.126-0.082c0.045-0.02,0.089-0.025,0.132-0.018c0.09,0.016,0.176,0.038,0.258,0.067
						c0.082,0.029,0.156,0.069,0.223,0.12c0.07,0.047,0.14,0.099,0.208,0.155c0.068,0.057,0.143,0.106,0.226,0.149
						c0.129,0.059,0.271,0.105,0.428,0.138c0.156,0.033,0.32,0.05,0.492,0.05c0.199,0.023,0.411,0.003,0.636-0.061
						c0.225-0.064,0.439-0.163,0.642-0.296c0.203-0.133,0.384-0.293,0.542-0.48s0.269-0.395,0.331-0.621
						c0.043-0.105,0.078-0.211,0.106-0.316c0.027-0.105,0.051-0.211,0.07-0.316c0.012-0.094-0.01-0.177-0.064-0.249
						c-0.055-0.072-0.133-0.105-0.234-0.097c-0.176,0-0.355,0.022-0.536,0.067c-0.182,0.045-0.366,0.095-0.554,0.149
						c-0.188,0.051-0.372,0.099-0.554,0.143c-0.182,0.045-0.36,0.063-0.536,0.056c-0.156,0.012-0.298-0.005-0.425-0.05
						c-0.127-0.045-0.236-0.111-0.328-0.199c-0.092-0.088-0.162-0.192-0.211-0.314c-0.049-0.121-0.073-0.254-0.073-0.398
						c-0.02-0.266,0.007-0.543,0.079-0.832c0.072-0.289,0.165-0.58,0.278-0.873c0.066-0.156,0.152-0.306,0.258-0.448
						c0.105-0.143,0.224-0.277,0.355-0.404c0.131-0.127,0.271-0.243,0.422-0.349c0.15-0.105,0.302-0.199,0.454-0.281
						c0.316-0.18,0.642-0.313,0.976-0.398c0.334-0.086,0.653-0.127,0.958-0.123c0.199,0.008,0.391,0.029,0.574,0.064
						c0.184,0.035,0.346,0.102,0.486,0.199c0.07,0.043,0.136,0.093,0.196,0.15c0.061,0.057,0.11,0.122,0.149,0.196
						c0.039,0.074,0.063,0.155,0.07,0.243c0.008,0.088-0.004,0.185-0.035,0.29c-0.02,0.074-0.056,0.134-0.108,0.179
						c-0.053,0.045-0.112,0.078-0.179,0.1c-0.066,0.021-0.135,0.035-0.205,0.041c-0.07,0.006-0.131,0.005-0.182-0.003
						c-0.121-0.008-0.233-0.032-0.337-0.073c-0.104-0.041-0.208-0.083-0.314-0.126c-0.105-0.035-0.209-0.073-0.311-0.114
						c-0.102-0.041-0.215-0.061-0.34-0.061c-0.188,0-0.381,0.033-0.58,0.1c-0.199,0.066-0.393,0.158-0.58,0.275
						c-0.188,0.113-0.358,0.254-0.513,0.422c-0.154,0.168-0.267,0.346-0.337,0.533c-0.039,0.109-0.058,0.216-0.056,0.319
						c0.002,0.104,0.009,0.206,0.021,0.308c0.016,0.043,0.033,0.086,0.053,0.129c0.02,0.043,0.044,0.082,0.073,0.117
						c0.029,0.035,0.065,0.064,0.108,0.088c0.043,0.023,0.094,0.035,0.152,0.035c0.149-0.008,0.3-0.042,0.454-0.102
						c0.154-0.061,0.306-0.116,0.454-0.167c0.172-0.066,0.344-0.121,0.516-0.164c0.172-0.043,0.34-0.068,0.504-0.076
						c0.258,0,0.475,0.066,0.65,0.199c0.176,0.133,0.297,0.307,0.363,0.521c0.074,0.199,0.102,0.419,0.082,0.659
						C239.236,146.238,239.181,146.481,239.091,146.727z"/>
					<path style="fill:#FFFFFF;" d="M242.148,144.998c-0.082,0.07-0.17,0.128-0.263,0.173c-0.094,0.044-0.189,0.081-0.287,0.112
						c-0.099,0.03-0.196,0.057-0.294,0.078c-0.098,0.023-0.194,0.047-0.29,0.074c-0.109,0.021-0.219,0.039-0.326,0.058
						c-0.108,0.019-0.217,0.034-0.325,0.048s-0.215,0.023-0.319,0.027c-0.104,0.005-0.207,0.002-0.308-0.007
						c-0.059-0.002-0.105-0.018-0.14-0.05c-0.034-0.03-0.059-0.068-0.072-0.114c-0.014-0.045-0.018-0.097-0.012-0.153
						c0.006-0.058,0.018-0.113,0.036-0.168c0.029-0.084,0.068-0.168,0.118-0.253c0.049-0.084,0.103-0.166,0.16-0.245
						c0.058-0.08,0.12-0.158,0.187-0.236c0.065-0.077,0.133-0.152,0.201-0.226c0.183-0.186,0.361-0.372,0.536-0.557
						c0.176-0.185,0.353-0.37,0.529-0.557c0.073-0.077,0.146-0.157,0.219-0.239c0.073-0.082,0.142-0.165,0.207-0.251
						c0.064-0.085,0.124-0.172,0.178-0.26c0.054-0.088,0.098-0.178,0.131-0.271c0.021-0.045,0.032-0.091,0.034-0.135
						c0.003-0.045-0.004-0.084-0.02-0.118c-0.016-0.034-0.04-0.06-0.074-0.078c-0.034-0.019-0.078-0.024-0.13-0.018
						c-0.126,0-0.254,0.023-0.385,0.068c-0.131,0.046-0.259,0.097-0.384,0.154c-0.073,0.038-0.135,0.089-0.185,0.151
						c-0.051,0.063-0.099,0.125-0.143,0.187c-0.041,0.066-0.099,0.121-0.171,0.166c-0.073,0.044-0.145,0.066-0.216,0.066
						c-0.063,0.007-0.109-0.004-0.138-0.031c-0.028-0.027-0.045-0.063-0.048-0.109c-0.004-0.045,0.002-0.095,0.017-0.148
						c0.015-0.053,0.033-0.103,0.054-0.148c0.045-0.096,0.104-0.183,0.179-0.261c0.074-0.079,0.156-0.149,0.248-0.212
						c0.091-0.063,0.185-0.119,0.283-0.168c0.098-0.049,0.193-0.09,0.287-0.124c0.202-0.08,0.403-0.133,0.602-0.159
						c0.197-0.026,0.391-0.037,0.577-0.032c0.061,0.002,0.114,0.014,0.158,0.035c0.045,0.022,0.081,0.051,0.109,0.088
						c0.028,0.036,0.052,0.078,0.068,0.126c0.018,0.048,0.029,0.097,0.036,0.146c0.012,0.107,0.012,0.218,0.002,0.332
						c-0.011,0.113-0.038,0.229-0.084,0.345c-0.025,0.082-0.06,0.163-0.102,0.244c-0.043,0.081-0.093,0.16-0.148,0.237
						c-0.056,0.078-0.115,0.153-0.178,0.228c-0.063,0.074-0.126,0.146-0.189,0.217c-0.157,0.162-0.314,0.322-0.468,0.481
						c-0.155,0.16-0.314,0.32-0.475,0.481c-0.137,0.144-0.269,0.291-0.395,0.442c-0.126,0.152-0.226,0.313-0.299,0.483
						c0.13-0.024,0.259-0.047,0.385-0.066c0.126-0.02,0.255-0.045,0.384-0.076c0.123-0.025,0.245-0.05,0.366-0.074
						c0.12-0.023,0.241-0.038,0.362-0.042c0.043-0.01,0.08-0.009,0.112,0.003c0.025,0.018,0.045,0.041,0.06,0.068
						c0.015,0.027,0.028,0.056,0.039,0.085c0.01,0.025,0.017,0.053,0.021,0.082C242.169,144.929,242.164,144.962,242.148,144.998z"
						/>
				</g>
			</g>
			<g>
				<g>
					<path style="fill:none;stroke:#FFFFFF;stroke-linecap:round;stroke-linejoin:round;stroke-miterlimit:10;" d="M130.277,148.576
						c0.142-0.402,0.338-1.452,0.559-2.863c-0.948-0.234-1.921-0.718-2.844-1.458c-0.338-0.271-0.811-0.262-1.143,0.016
						c-0.301,0.252-0.62,0.473-0.951,0.671l1.33,2.099L130.277,148.576z"/>
					<path style="fill:none;stroke:#FFFFFF;stroke-linecap:round;stroke-linejoin:round;stroke-miterlimit:10;" d="M164.321,112.047
						c-5.78-6.08-13.03-8.161-18.345-5.891c-1.57,0.671-3.365,0.336-4.593-0.85c-6.434-6.212-16.859-6.951-21.185-1.088
						c-0.482,0.653-0.894,1.357-1.238,2.104c-0.559,1.212-1.437,2.26-2.554,2.99c-0.737,0.481-1.4,1.104-1.966,1.871
						c-1.372,1.86-1.968,4.29-1.861,6.9c0.031,0.764-0.376,1.495-1.074,1.808c-1.145,0.515-2.159,1.319-2.972,2.421
						c-3.502,4.746-1.956,13.206,3.453,18.895c3.783,3.978,8.452,5.547,12.116,4.509l-1.644-3.891h1.467l1.975,3.117
						c0.331-0.197,0.649-0.419,0.951-0.671c0.332-0.278,0.805-0.286,1.143-0.016c0.923,0.74,1.896,1.224,2.844,1.458
						c0.851-5.422,2.079-16.191,2.079-16.191s0.551,3.254,6.24,1.469l-0.772,12.709l5.911-1.212l4.588-9.051h1.835l-1.65,3.907
						l3.854-0.836l3.303-4.242l1.156,0.281l-2.991,4.592l-6.119,3.463l-0.587,1.696c1.466,0.245,2.841-0.141,3.836-1.191
						c0.266-0.281,0.693-0.347,1.035-0.165c6.299,3.359,12.936,2.712,16.63-2.294C174.113,131.967,171.936,120.057,164.321,112.047z
						"/>
					<path style="fill:none;stroke:#FFFFFF;stroke-linecap:round;stroke-linejoin:round;stroke-miterlimit:10;" d="M143.378,185.146
						c0,0-0.734-9.18-0.734-9.679c0-0.498-3.12-18.086-3.12-18.086l-1.102-9.851l8.325-2.538l0.934-2.695l0.587-1.696l6.119-3.463
						l2.991-4.592l-1.156-0.281l-3.303,4.242l-3.854,0.836l1.65-3.907h-1.835l-4.588,9.051l-5.911,1.212l0.772-12.709
						c-5.689,1.785-6.24-1.469-6.24-1.469s-1.229,10.769-2.079,16.191c-0.221,1.411-0.417,2.461-0.559,2.863l-3.048-1.535
						l-1.33-2.099l-1.975-3.117h-1.467l1.644,3.891l0.56,1.325l5.151,4.786c-0.412,6.751-0.749,22.299-0.749,22.299l-1.833,10.87"/>
				</g>
				<g>
					<g>
						<path style="fill:#92E3A9;stroke:#FFFFFF;stroke-linecap:round;stroke-linejoin:round;" d="M154.106,123.387
							c-0.179-0.742-0.611-1.531-1.357-1.694c-0.804-0.175-1.542,0.446-2.131,1.02c-0.338-1.254-1.879-1.95-3.12-1.565
							c-1.241,0.385-2.089,1.642-2.217,2.935c-0.128,1.293,0.373,2.589,1.143,3.635c0.759,1.031,1.603,1.506,2.862,1.254
							c0.905-0.181,1.658,0.065,2.527-0.039C153.954,128.68,154.503,125.031,154.106,123.387z"/>
						<path style="fill:#263238;stroke:#FFFFFF;stroke-linecap:round;stroke-linejoin:round;stroke-miterlimit:10;" d="
							M150.788,120.442c0.175-0.002,0.349-0.063,0.496-0.174c-0.296,0.905-0.454,1.832-0.674,2.755
							C150.596,122.796,150.618,120.444,150.788,120.442z"/>
						<path style="fill:#263238;stroke:#FFFFFF;stroke-linecap:round;stroke-linejoin:round;stroke-miterlimit:10;" d="
							M151.549,120.536c0.322-0.289,0.702-0.502,1.079-0.712c-0.04,0.462-0.096,0.941-0.335,1.336
							c-0.238,0.394-0.653,0.67-1.101,0.733C150.354,122.01,151.324,120.738,151.549,120.536z"/>
					</g>
				</g>
				<g>
					<g>
						<path style="fill:#92E3A9;stroke:#FFFFFF;stroke-linecap:round;stroke-linejoin:round;" d="M153.46,176.413
							c0.179,0.742,0.611,1.531,1.357,1.693c0.804,0.175,1.542-0.446,2.131-1.02c0.338,1.254,1.879,1.95,3.12,1.565
							c1.241-0.385,2.089-1.642,2.217-2.935c0.128-1.293-0.373-2.589-1.143-3.635c-0.759-1.031-1.603-1.506-2.861-1.254
							c-0.905,0.181-1.658-0.065-2.527,0.039C153.613,171.119,153.064,174.768,153.46,176.413z"/>
						<path style="fill:#263238;stroke:#FFFFFF;stroke-linecap:round;stroke-linejoin:round;stroke-miterlimit:10;" d="
							M156.779,179.357c-0.175,0.002-0.349,0.063-0.496,0.174c0.296-0.905,0.454-1.832,0.674-2.755
							C156.971,177.004,156.949,179.355,156.779,179.357z"/>
						<path style="fill:#263238;stroke:#FFFFFF;stroke-linecap:round;stroke-linejoin:round;stroke-miterlimit:10;" d="
							M156.017,179.264c-0.322,0.289-0.703,0.502-1.079,0.712c0.04-0.462,0.096-0.941,0.335-1.336
							c0.238-0.394,0.653-0.67,1.101-0.733C157.213,177.79,156.243,179.061,156.017,179.264z"/>
					</g>
				</g>
				<g>
					<g>
						<path style="fill:#92E3A9;stroke:#FFFFFF;stroke-linecap:round;stroke-linejoin:round;" d="M125.78,129.327
							c-0.179-0.742-0.611-1.531-1.357-1.693c-0.804-0.175-1.542,0.446-2.131,1.02c-0.338-1.254-1.879-1.95-3.12-1.565
							c-1.241,0.385-2.089,1.642-2.217,2.935c-0.128,1.293,0.373,2.589,1.143,3.635c0.759,1.031,1.603,1.506,2.862,1.254
							c0.905-0.181,1.658,0.065,2.527-0.039C125.627,134.621,126.176,130.972,125.78,129.327z"/>
						<path style="fill:#263238;stroke:#FFFFFF;stroke-linecap:round;stroke-linejoin:round;stroke-miterlimit:10;" d="
							M122.461,126.383c0.175-0.002,0.349-0.063,0.496-0.174c-0.296,0.905-0.454,1.832-0.674,2.755
							C122.269,128.736,122.291,126.385,122.461,126.383z"/>
						<path style="fill:#263238;stroke:#FFFFFF;stroke-linecap:round;stroke-linejoin:round;stroke-miterlimit:10;" d="
							M123.223,126.476c0.322-0.289,0.702-0.502,1.079-0.712c-0.04,0.462-0.096,0.941-0.335,1.336
							c-0.238,0.394-0.653,0.67-1.101,0.733C122.027,127.951,122.997,126.679,123.223,126.476z"/>
					</g>
				</g>
				<g>
					<g>
						<path style="fill:#92E3A9;stroke:#FFFFFF;stroke-linecap:round;stroke-linejoin:round;" d="M135.199,111.268
							c-0.179-0.742-0.611-1.531-1.357-1.693c-0.804-0.175-1.542,0.446-2.131,1.02c-0.338-1.254-1.879-1.95-3.12-1.565
							c-1.241,0.385-2.089,1.642-2.217,2.935c-0.128,1.293,0.373,2.589,1.143,3.635c0.759,1.031,1.603,1.506,2.862,1.254
							c0.905-0.181,1.658,0.065,2.527-0.039C135.047,116.561,135.596,112.913,135.199,111.268z"/>
						<path style="fill:#263238;stroke:#FFFFFF;stroke-linecap:round;stroke-linejoin:round;stroke-miterlimit:10;" d="
							M131.881,108.323c0.175-0.002,0.349-0.063,0.496-0.174c-0.296,0.905-0.454,1.832-0.674,2.755
							C131.688,110.677,131.711,108.325,131.881,108.323z"/>
						<path style="fill:#263238;stroke:#FFFFFF;stroke-linecap:round;stroke-linejoin:round;stroke-miterlimit:10;" d="
							M132.642,108.417c0.322-0.289,0.702-0.502,1.079-0.712c-0.04,0.462-0.096,0.941-0.335,1.336
							c-0.238,0.394-0.653,0.67-1.101,0.733C131.447,109.891,132.417,108.619,132.642,108.417z"/>
					</g>
				</g>
				<g>
					
						<line style="fill:#FFFFFF;stroke:#FFFFFF;stroke-linecap:round;stroke-linejoin:round;stroke-miterlimit:10;" x1="156.802" y1="151.604" x2="156.802" y2="164.919"/>
					
						<line style="fill:#FFFFFF;stroke:#FFFFFF;stroke-linecap:round;stroke-linejoin:round;stroke-miterlimit:10;" x1="160.129" y1="158.732" x2="160.129" y2="169.199"/>
				</g>
			</g>
		</g>
		<g>
			<g>
				<polygon style="fill:none;stroke:#FFFFFF;stroke-linecap:round;stroke-linejoin:round;stroke-miterlimit:10;" points="
					91.477,252.411 171.356,252.411 171.356,210.001 				"/>
			</g>
			
				<rect x="114.867" y="201.231" transform="matrix(0.8836 -0.4683 0.4683 0.8836 -86.0064 85.7701)" style="fill:none;stroke:#FFFFFF;stroke-linecap:round;stroke-linejoin:round;stroke-miterlimit:10;" width="29.245" height="29.245"/>
			<g>
				
					<line style="fill:none;stroke:#FFFFFF;stroke-linecap:round;stroke-linejoin:round;stroke-miterlimit:10;" x1="151.901" y1="206.604" x2="156.122" y2="199.708"/>
				<polyline style="fill:none;stroke:#FFFFFF;stroke-linecap:round;stroke-linejoin:round;stroke-miterlimit:10;" points="
					125.343,237.177 129.49,242.529 129.49,215.853 156.122,199.708 148.298,199.708 				"/>
				
					<line style="fill:none;stroke:#FFFFFF;stroke-linecap:round;stroke-linejoin:round;stroke-miterlimit:10;" x1="129.49" y1="242.529" x2="133.373" y2="238.103"/>
			</g>
			<g>
				<path style="fill:#FFFFFF;stroke:#FFFFFF;stroke-miterlimit:10;" d="M138.331,243.431c-0.024,0.048-0.05,0.099-0.078,0.153
					c-0.028,0.055-0.06,0.106-0.096,0.155c-0.036,0.049-0.077,0.095-0.124,0.136c-0.047,0.041-0.099,0.074-0.158,0.098
					c-0.061,0.008-0.115,0.003-0.161-0.014c-0.047-0.017-0.086-0.042-0.118-0.074c-0.032-0.032-0.057-0.07-0.074-0.115
					c-0.018-0.045-0.025-0.095-0.022-0.147c0.005-0.072,0.022-0.146,0.05-0.224c0.028-0.077,0.054-0.153,0.078-0.227
					c0.08-0.215,0.158-0.429,0.235-0.64c0.077-0.211,0.145-0.425,0.203-0.64c0.061-0.215,0.117-0.43,0.167-0.646
					c0.05-0.215,0.076-0.427,0.076-0.634c-0.343,0.579-0.708,1.146-1.096,1.702c-0.085,0.111-0.168,0.228-0.249,0.349
					c-0.081,0.121-0.165,0.239-0.251,0.355c-0.086,0.115-0.178,0.225-0.275,0.331c-0.097,0.105-0.205,0.2-0.325,0.285
					c-0.053-0.002-0.097-0.016-0.13-0.04c-0.033-0.024-0.06-0.055-0.08-0.093c-0.02-0.039-0.035-0.081-0.044-0.126
					c-0.009-0.045-0.015-0.09-0.018-0.135c0.002-0.199,0.012-0.399,0.03-0.6c0.017-0.201,0.037-0.402,0.058-0.604
					c0.013-0.202,0.027-0.404,0.04-0.606c0.013-0.202,0.009-0.398-0.012-0.59c-0.135,0.253-0.253,0.505-0.353,0.757
					c-0.1,0.252-0.193,0.508-0.281,0.766c-0.032,0.093-0.057,0.183-0.076,0.271c-0.018,0.087-0.039,0.178-0.06,0.271
					c-0.014,0.09-0.032,0.181-0.056,0.271c-0.024,0.09-0.05,0.18-0.08,0.267c-0.013,0.045-0.028,0.09-0.046,0.134
					c-0.017,0.043-0.037,0.088-0.058,0.133l-0.036,0.076l-0.032,0.06l-0.048,0.056c-0.037,0.019-0.068,0.031-0.094,0.038
					c-0.025,0.006-0.049,0.011-0.072,0.014c-0.022,0.003-0.043,0.003-0.062,0.002c-0.018-0.001-0.039-0.002-0.06-0.002
					c-0.04-0.011-0.078-0.022-0.115-0.034c-0.038-0.012-0.064-0.037-0.08-0.074c-0.034-0.066-0.048-0.149-0.039-0.247
					c-0.008-0.208,0.015-0.421,0.07-0.64c0.054-0.219,0.116-0.44,0.185-0.664c0.114-0.359,0.248-0.718,0.401-1.078
					c0.153-0.36,0.321-0.718,0.504-1.075c0.045-0.074,0.086-0.149,0.123-0.225c0.038-0.076,0.076-0.152,0.116-0.229
					c0.053-0.075,0.103-0.15,0.149-0.228c0.047-0.077,0.097-0.151,0.15-0.223c0.034-0.043,0.073-0.087,0.115-0.133
					c0.042-0.047,0.087-0.089,0.134-0.128c0.046-0.038,0.096-0.072,0.147-0.1c0.052-0.028,0.105-0.046,0.162-0.054
					c0.058-0.011,0.108-0.006,0.148,0.014c0.04,0.02,0.071,0.048,0.093,0.085c0.023,0.037,0.039,0.08,0.048,0.127
					c0.009,0.048,0.013,0.096,0.01,0.144c-0.003,0.447-0.02,0.896-0.054,1.35c-0.034,0.453-0.093,0.915-0.178,1.385
					c0.112-0.13,0.216-0.264,0.313-0.401c0.097-0.137,0.192-0.273,0.285-0.408c0.154-0.224,0.305-0.445,0.453-0.664
					c0.148-0.219,0.303-0.439,0.468-0.66c0.063-0.093,0.129-0.182,0.197-0.267c0.068-0.085,0.138-0.173,0.209-0.263
					c0.051-0.048,0.098-0.096,0.142-0.146c0.044-0.049,0.087-0.094,0.13-0.133c0.043-0.04,0.085-0.072,0.127-0.098
					c0.043-0.025,0.087-0.038,0.131-0.038c0.112,0.029,0.198,0.078,0.259,0.145c0.061,0.068,0.105,0.149,0.129,0.243
					c0.025,0.094,0.036,0.197,0.032,0.309c-0.004,0.112-0.018,0.226-0.04,0.343c-0.022,0.117-0.05,0.234-0.081,0.351
					c-0.032,0.117-0.063,0.227-0.092,0.331c-0.029,0.093-0.063,0.184-0.102,0.275c-0.038,0.09-0.074,0.182-0.106,0.275
					c-0.04,0.093-0.078,0.185-0.113,0.275c-0.036,0.09-0.073,0.182-0.11,0.275c-0.029,0.106-0.057,0.212-0.081,0.317
					c-0.025,0.105-0.053,0.211-0.082,0.317c-0.048,0.189-0.102,0.377-0.161,0.563C138.484,243.055,138.414,243.242,138.331,243.431z
					"/>
				<path style="fill:#FFFFFF;stroke:#FFFFFF;stroke-miterlimit:10;" d="M143.661,241.322c-0.053,0.144-0.115,0.286-0.185,0.429
					c-0.071,0.142-0.14,0.285-0.21,0.428c-0.112,0.226-0.248,0.445-0.409,0.658c-0.161,0.213-0.345,0.411-0.552,0.594
					c-0.096,0.093-0.2,0.181-0.313,0.263c-0.113,0.083-0.229,0.154-0.347,0.213c-0.118,0.06-0.237,0.107-0.356,0.14
					c-0.12,0.033-0.237,0.047-0.351,0.042c-0.154,0.005-0.295-0.014-0.422-0.058c-0.127-0.044-0.239-0.106-0.335-0.187
					c-0.096-0.081-0.175-0.177-0.237-0.287c-0.063-0.11-0.107-0.229-0.133-0.357c-0.069-0.25-0.087-0.518-0.054-0.803
					c0.033-0.286,0.1-0.573,0.201-0.863c0.125-0.348,0.295-0.689,0.512-1.023s0.482-0.637,0.795-0.911
					c0.148-0.141,0.31-0.267,0.484-0.376c0.174-0.11,0.353-0.202,0.536-0.273c0.183-0.072,0.366-0.123,0.548-0.153
					c0.182-0.03,0.355-0.038,0.521-0.022c0.063,0.003,0.128,0.011,0.193,0.026c0.065,0.015,0.122,0.039,0.169,0.072
					c0.048,0.033,0.082,0.077,0.104,0.129c0.021,0.053,0.02,0.119-0.004,0.196c-0.011,0.026-0.022,0.056-0.034,0.087
					c-0.012,0.032-0.026,0.063-0.044,0.092c-0.017,0.029-0.039,0.054-0.065,0.074c-0.027,0.02-0.059,0.031-0.096,0.034
					c-0.021-0.005-0.042-0.01-0.062-0.014c-0.02-0.004-0.041-0.006-0.065-0.006c-0.136-0.016-0.279-0.012-0.431,0.01
					c-0.151,0.023-0.303,0.063-0.454,0.122c-0.151,0.059-0.3,0.133-0.446,0.225c-0.146,0.092-0.28,0.199-0.403,0.321
					c-0.26,0.247-0.474,0.516-0.64,0.805c-0.166,0.29-0.302,0.582-0.409,0.877c-0.04,0.101-0.075,0.207-0.106,0.319
					c-0.031,0.111-0.053,0.223-0.066,0.334c-0.013,0.112-0.016,0.218-0.008,0.319c0.008,0.101,0.033,0.19,0.076,0.267
					c0.043,0.077,0.103,0.139,0.181,0.185c0.079,0.046,0.182,0.07,0.309,0.07c0.136,0.008,0.274-0.021,0.417-0.088
					c0.142-0.066,0.273-0.152,0.393-0.259c0.114-0.109,0.216-0.226,0.305-0.351c0.089-0.124,0.163-0.255,0.221-0.391
					c0.04-0.069,0.072-0.139,0.098-0.209c0.025-0.07,0.054-0.14,0.086-0.21c0.021-0.061,0.04-0.123,0.058-0.186
					c0.017-0.062,0.031-0.124,0.042-0.185c-0.069,0.005-0.14,0.013-0.212,0.022c-0.072,0.009-0.146,0.026-0.223,0.05
					c-0.075,0.013-0.148,0.028-0.221,0.044c-0.073,0.016-0.145,0.021-0.213,0.016c-0.056,0.005-0.103,0-0.142-0.018
					c-0.039-0.017-0.068-0.043-0.088-0.076c-0.02-0.033-0.03-0.072-0.03-0.117c0-0.045,0.012-0.093,0.036-0.144l0.024-0.068
					l0.043-0.068l0.004-0.012c0.045-0.053,0.098-0.095,0.159-0.126c0.061-0.03,0.122-0.059,0.184-0.085
					c0.111-0.04,0.224-0.081,0.337-0.124c0.113-0.042,0.226-0.082,0.339-0.118c0.113-0.036,0.224-0.066,0.335-0.09
					c0.11-0.024,0.22-0.036,0.329-0.036c0.13,0.016,0.231,0.069,0.303,0.159c0.072,0.09,0.105,0.2,0.1,0.327
					c-0.005,0.056-0.013,0.112-0.024,0.169C143.702,241.206,143.685,241.264,143.661,241.322z"/>
			</g>
			<g>
				<path style="fill:#FFFFFF;stroke:#FFFFFF;stroke-miterlimit:10;" d="M150.205,194.285c-0.032,0.082-0.079,0.151-0.141,0.208
					c-0.062,0.057-0.132,0.105-0.21,0.146c-0.078,0.041-0.158,0.073-0.24,0.096c-0.082,0.023-0.158,0.042-0.23,0.056
					c-0.238,0.032-0.473,0.062-0.706,0.091c-0.233,0.028-0.466,0.053-0.701,0.074c-0.1,0.015-0.199,0.027-0.299,0.038
					c-0.1,0.011-0.198,0.026-0.296,0.046c-0.098,0.02-0.196,0.046-0.295,0.079c-0.1,0.034-0.197,0.078-0.293,0.131
					c-0.039,0.117-0.075,0.234-0.109,0.352c-0.034,0.117-0.074,0.236-0.12,0.357c-0.032,0.135-0.069,0.272-0.112,0.413
					c-0.043,0.14-0.087,0.281-0.133,0.423c-0.057,0.146-0.113,0.293-0.168,0.44c-0.055,0.147-0.129,0.288-0.221,0.424
					c-0.082,0.156-0.182,0.282-0.301,0.378c-0.119,0.096-0.237,0.137-0.354,0.123c-0.057-0.018-0.108-0.042-0.154-0.072
					c-0.046-0.03-0.075-0.075-0.085-0.136c-0.011-0.117-0.01-0.238,0.003-0.362c0.012-0.124,0.03-0.25,0.053-0.378
					c0.023-0.128,0.05-0.257,0.08-0.387c0.03-0.129,0.058-0.258,0.083-0.386c0.071-0.277,0.142-0.554,0.213-0.832
					c0.071-0.277,0.158-0.558,0.261-0.842c0.15-0.408,0.327-0.811,0.533-1.207c0.206-0.396,0.426-0.793,0.661-1.191
					c0.05-0.092,0.105-0.182,0.165-0.269c0.06-0.087,0.123-0.173,0.186-0.258c0.071-0.071,0.148-0.137,0.229-0.197
					c0.082-0.061,0.167-0.107,0.256-0.139c0.181-0.064,0.361-0.113,0.541-0.146c0.179-0.034,0.36-0.061,0.541-0.083
					c0.195-0.039,0.388-0.066,0.578-0.08c0.19-0.014,0.376-0.021,0.557-0.021c0.11,0.007,0.217,0.028,0.32,0.062
					c0.103,0.034,0.191,0.083,0.264,0.149c0.073,0.066,0.122,0.147,0.149,0.243c0.027,0.096,0.019,0.21-0.024,0.341
					c-0.032,0.11-0.099,0.202-0.2,0.274c-0.101,0.073-0.207,0.12-0.317,0.141c-0.21,0.039-0.391,0.06-0.544,0.062
					c-0.153,0.001-0.299-0.001-0.438-0.008c-0.113-0.003-0.226-0.01-0.338-0.018c-0.112-0.009-0.227-0.013-0.344-0.013
					c-0.042,0-0.086,0.002-0.13,0.005c-0.044,0.003-0.086,0.011-0.126,0.021c-0.167,0.16-0.296,0.333-0.389,0.52
					c-0.092,0.187-0.176,0.374-0.25,0.562l-0.037,0.107l-0.005,0.085l-0.011,0.043c0.171-0.007,0.34-0.017,0.509-0.029
					c0.169-0.013,0.338-0.028,0.509-0.045c0.17-0.014,0.342-0.028,0.515-0.043c0.172-0.014,0.338-0.018,0.498-0.01
					c0.085,0,0.166,0.012,0.243,0.037c0.076,0.025,0.142,0.061,0.197,0.106c0.055,0.046,0.099,0.103,0.133,0.168
					c0.034,0.066,0.05,0.141,0.05,0.227c0.007,0.021,0.012,0.042,0.014,0.062C150.225,194.238,150.219,194.26,150.205,194.285z"/>
			</g>
			<g>
				<path style="fill:none;stroke:#FFFFFF;stroke-linecap:round;stroke-linejoin:round;stroke-miterlimit:10;" d="M146.383,188.622
					c3.363,0.069,4.461,0.137,7.824,0.206"/>
				<path style="fill:none;stroke:#FFFFFF;stroke-linecap:round;stroke-linejoin:round;stroke-miterlimit:10;" d="M151.947,186.372
					c0.961,0.755,1.922,1.509,2.883,2.264c-0.961,0.686-1.721,1.38-2.682,2.066"/>
			</g>
		</g>
	</g>
</g>
<g id="Character">
	<g>
		<ellipse style="fill:#92E3A9;" cx="250.148" cy="451.046" rx="77.611" ry="13.616"/>
		<g>
			<g>
				<g>
					<path style="fill:#C9CCCD;stroke:#263238;stroke-linecap:round;stroke-linejoin:round;" d="M222.572,256.874
						c0,0,2.491,63.114,4.545,81.407c1.91,15.935,2.527,32.017,1.842,48.063c-0.629,16.511,2.989,45.457,2.992,46.132l0.017,3.855
						c0,0-5.35,8.789-8.319,11.595c-2.969,2.806-4.556,5.577-3.561,7.067c0.994,1.49,3.797,3.841,11.555,1.664
						c7.758-2.177,10.756-4.53,12.54-7.312c1.301-1.874,2.914-3.475,4.757-4.72c3.442,0.766,6.838,1.754,10.169,2.96
						c5.19,1.908,9.384,4.023,15.355,4.001c5.971-0.022,7.166-4.083,5.748-6.006c-1.418-1.922-11.382-7.225-12.986-10.64
						c-1.604-3.415-0.826-6.194-0.859-13.893c-0.033-7.7,3.444-40.487,6.033-52.944c2.104-10.122,8.275-27.434,10.315-43.584
						c2.04-16.15,4.796-43.596,5.012-51.741c0.216-8.144,0.077-15.42,0.077-15.42s0.158-0.858-0.603-4.46
						c-0.761-3.602-0.967-3.591-19.629-1.75c-12.232,1.271-24.524,1.77-36.812,1.493
						C224.959,252.461,223.046,254.28,222.572,256.874z"/>
					<path style="fill:none;stroke:#263238;stroke-linecap:round;stroke-linejoin:round;" d="M249.484,433.241
						c0,0,0.562-7.037,0.521-16.462c-0.041-9.425,1.701-38.718,5.488-55.8c3.788-17.081,6.124-74.912,6.124-74.912
						s3.575-1.393,5.745-6.216"/>
					<path style="fill:none;stroke:#263238;stroke-linecap:round;stroke-linejoin:round;" d="M261.83,259.759l-0.122,15.516l0,0
						c3.135-2.188,5.067-5.532,5.283-9.146l0.371-6.207"/>
					<path style="fill:#263238;stroke:#263238;stroke-linecap:round;stroke-linejoin:round;" d="M244.908,438.385
						c0,0-2.006-4.908-6.59-5.961c-4.584-1.053-6.359,3.878-6.359,3.878s-5.35,8.789-8.319,11.595
						c-2.969,2.806-4.556,5.577-3.561,7.067c0.994,1.49,3.797,3.841,11.556,1.664c7.758-2.177,10.756-4.53,12.54-7.312
						c1.301-1.874,2.914-3.475,4.757-4.72l0.553-11.326L244.908,438.385z"/>
					<path style="fill:#FFFFFF;stroke:#263238;stroke-linecap:round;stroke-linejoin:round;" d="M241.177,447.804
						c-2.373,3.642-4.751,6.002-12.715,6.455c-4.489,0.257-7.088-0.581-8.501-1.357c-0.269,0.66-0.218,1.419,0.134,2.033
						c1.003,1.49,3.797,3.841,11.555,1.663s10.756-4.53,12.54-7.312c1.301-1.874,2.914-3.475,4.757-4.72l0.149-2.969
						C248.641,441.802,243.452,444.317,241.177,447.804z"/>
					<path style="fill:#263238;stroke:#263238;stroke-linecap:round;stroke-linejoin:round;" d="M274.455,451.528
						c5.972-0.022,7.166-4.083,5.748-6.006c-1.418-1.922-11.382-7.225-12.986-10.64c-0.621-1.329-0.961-2.789-0.997-4.275
						c-5.904-0.932-8.749,5.631-8.749,5.631l-7.978-2.958l-0.553,11.326c3.442,0.766,6.838,1.754,10.169,2.96
						C264.29,449.425,268.484,451.549,274.455,451.528z"/>
					<path style="fill:#FFFFFF;stroke:#263238;stroke-linecap:round;stroke-linejoin:round;" d="M260.484,445.594
						c-3.697-1.654-7.51-2.99-11.404-3.996l0,0l0.013,3.007c3.376,0.766,6.709,1.741,9.98,2.922
						c5.19,1.909,9.383,4.023,15.355,4.001c3.879-0.014,5.722-1.727,6.172-3.453C273.75,452.561,264.408,447.584,260.484,445.594z"
						/>
				</g>
				<g>
					<path style="fill:#999999;stroke:#263238;stroke-linecap:round;stroke-linejoin:round;stroke-miterlimit:10;" d="
						M174.985,184.676c-1.52-4.141,1.497-5.431,0.603-9.723c-0.817-4.061,0.056-9.214-0.453-10.659
						c-0.509-1.445-2.799-2.297-3.865,0.863c-0.721,2.442,0.763,5.194-1.379,7.467c0,0-4.426-2.187-7.598-2.24
						c-3.172-0.053-2.687,2.236-3.35,5.363s-1.254,9.075,1.768,11.182c3.022,2.106,7.149,2.574,7.149,2.574s0.82,1.902,3.65,7.684
						c6.379,13.034,6.693,13.573,10.423,19.961c5.948,10.188,12.392,12.811,15.418,9.224c3.026-3.586,6.986-6.313-0.894-16.094
						c-3.761-4.668-19.318-21.95-19.318-21.95C176.376,187.398,175.507,185.736,174.985,184.676z"/>
					<path style="fill:none;stroke:#263238;stroke-linecap:round;stroke-linejoin:round;" d="M168.704,181.067
						c-1.785-2.878-0.017-5.102,0.595-6.12c0.432-0.88,0.698-1.82,0.788-2.781"/>
					<polygon style="fill:#FFFFFF;" points="154.938,128.315 163.13,191.505 166.342,190.117 155.754,128.134 					"/>
					<path style="fill:#999999;stroke:#263238;stroke-linecap:round;stroke-linejoin:round;stroke-miterlimit:10;" d="
						M157.951,176.035c0,0,2.983,1.251,3.859,1.436c0.876,0.185,2.838,0.242,3.412,1.096c0.574,0.854,0.824,4.07-1.738,4.241
						l-6.586-2.207C156.898,180.6,154.822,177.574,157.951,176.035z"/>
					<path style="fill:#999999;stroke:#263238;stroke-linecap:round;stroke-linejoin:round;stroke-miterlimit:10;" d="
						M163.998,174.063c0.117,0.016,0.233,0.041,0.346,0.074c1.124,0.335,1.741,1.445,1.377,2.479
						c-0.419,1.608-1.727,3.139-4.172,2.371c-2.445-0.768-4.646-1.97-5.135-3.649c-0.211-1.048,0.322-2.104,1.328-2.631
						L163.998,174.063z"/>
					<path style="fill:#999999;stroke:#263238;stroke-linecap:round;stroke-linejoin:round;stroke-miterlimit:10;" d="
						M165.234,170.203c0,0-6.329-2.582-7.888-2.672c-1.559-0.09-1.841,3.111-1.389,4.428c0.452,1.317,6.43,3.219,8.202,2.989
						c1.772-0.23,1.614-4.262,1.614-4.262C165.044,169.915,165.234,170.203,165.234,170.203z"/>
				</g>
				<g>
					<path style="fill:#999999;stroke:#263238;stroke-linecap:round;stroke-linejoin:round;stroke-miterlimit:10;" d="
						M163.047,182.327c3.219,0.817,2.574,3.718,1.155,4.254c-1.419,0.537-6.258-0.618-6.999-1.874
						c-0.741-1.256,0.102-3.495,0.102-3.495C159.242,181.473,161.16,181.845,163.047,182.327z"/>
				</g>
				<g>
					<g>
						<g>
							<g>
								<g>
									<g>
										<defs>
											<path id="XMLID_4_" d="M293.838,178.602c0.343-3.301-1.325-8.275-1.331-8.283c-1.754-2.319-11.263-5.856-14.772-8.147
												c-3.509-2.291-9.383-4.433-12.894-4.421c-3.511,0.013-10.896,0.212-10.896,0.212c-3.923,1.76-7.944,3.327-12.047,4.695
												c-3.881,1.091-21.032,8.13-21.027,9.389c0.005,1.26,3.799,66.549,3.799,66.549l-2.521,23.669
												c-0.54,5.074,4.67,9.037,9.983,7.588c13.506-3.682,32.97-8.561,32.97-8.561l20.565,5.926
												c5.598,1.815,5.666-4.366,4.704-9.753v0c-4.728-18.12-5.212-36.958-1.421-55.264
												C291.459,190.093,293.837,178.607,293.838,178.602z"/>
										</defs>
										<use xlink:href="#XMLID_4_"  style="overflow:visible;fill:#92E3A9;"/>
										<clipPath id="XMLID_00000054236896769884253850000013138289315324028057_">
											<use xlink:href="#XMLID_4_"  style="overflow:visible;"/>
										</clipPath>
										
											<path style="opacity:0.2;clip-path:url(#XMLID_00000054236896769884253850000013138289315324028057_);enable-background:new    ;" d="
											M240.26,216.913c-2.928-6.119-4.989-13.05-10.657-17.235c-5.544,3.815-7.211,10.843-6.96,17.207
											c0.251,6.365,2.001,12.671,1.58,19.028c-0.33,4.98-1.981,9.793-3.156,14.664c-1.175,4.871-1.866,10.023-0.297,14.799
											c1.569,4.776,5.888,9.075,11.288,9.554c4.058,0.36,7.943-1.398,11.571-3.107c5.345-2.518,10.689-5.036,16.034-7.554
											c0.826-0.389,1.701-0.821,2.141-1.573c0.525-0.897,0.29-1.995,0.041-2.988c-2.095-8.362-2.791-19.271-7.024-26.954
											C251.361,226.471,243.58,223.96,240.26,216.913z"/>
										
											<use xlink:href="#XMLID_4_"  style="overflow:visible;fill:none;stroke:#263238;stroke-linecap:round;stroke-linejoin:round;"/>
									</g>
									<path style="fill:#FFFFFF;stroke:#263238;stroke-linecap:round;stroke-linejoin:round;" d="M276.074,185.327
										c-0.223,3.923-1.755,16.184-5.925,25.999c-2.6,6.154-4.888,11.182-5.461,12.267l-0.112,0.188
										c-0.158,0.219-0.558-0.665-1.108-2.256l-0.012-0.042c-0.906-2.611-2.216-7.095-3.538-11.766
										c-1.874-6.606-3.784-13.577-4.633-16.125c-3.453-10.381-4.645-11.147-5.277-20.987c-0.62-9.839,2.216-13.911,2.216-13.911
										c4.842-6.1,15.573-1.505,17.91-0.44c2.326,1.075,5.03,0.809,5.73,5.245C276.93,170.253,276.93,170.253,276.074,185.327z"/>
									<polyline style="fill:none;stroke:#263238;stroke-linecap:round;stroke-linejoin:round;" points="250.636,162.962 
										256.424,173.532 266.513,168.551 276.012,172.516 									"/>
									<polyline style="fill:none;stroke:#263238;stroke-linecap:round;stroke-linejoin:round;" points="258.431,172.542 
										264.226,179.951 267.06,183.574 269.621,179.786 274.847,172.029 									"/>
									<polygon style="fill:#263238;" points="268.391,176.379 269.621,179.786 267.06,183.574 264.226,179.951 265.468,176.39 
										261.997,171.035 266.513,168.551 271.111,170.626 									"/>
								</g>
							</g>
							<g>
								<g>
									<defs>
										<path id="XMLID_3_" d="M220.469,172.717c-0.372,1.761-18.255,37.341-19.605,38.044c-1.35,0.703-2.094,0.19-2.094,0.19
											l-19.905-22.678l-11.252,7.248c3.58,7.18,7.631,14.152,12.132,20.879c7.505,11.231,20.557,19.65,23.406,18.744
											c2.85-0.906,22.061-29.289,22.061-29.289l2.957-20.277C228.954,180.202,225.829,174.983,220.469,172.717z"/>
									</defs>
									<use xlink:href="#XMLID_3_"  style="overflow:visible;fill:#92E3A9;"/>
									<clipPath id="XMLID_00000026152857050097250450000004107221021684914323_">
										<use xlink:href="#XMLID_3_"  style="overflow:visible;"/>
									</clipPath>
									
										<path style="opacity:0.2;clip-path:url(#XMLID_00000026152857050097250450000004107221021684914323_);enable-background:new    ;" d="
										M216.053,186.646c2.283,2.27,5.111,4.195,6.556,6.988c0.307,0.593,0.556,1.232,1.051,1.705
										c0.495,0.473,1.339,0.725,1.932,0.36c0.609-0.374,0.667-1.164,0.648-1.838c-0.201-7.141-1.968-14.241-5.164-20.752
										c-0.763-1.555-1.836-3.247-3.651-3.6c-2.045-0.398-4.029,1.239-4.594,3.09
										C211.518,176.906,212.792,183.404,216.053,186.646z"/>
									
										<path style="opacity:0.2;clip-path:url(#XMLID_00000026152857050097250450000004107221021684914323_);enable-background:new    ;" d="
										M196.471,222.346c-0.948-2.426-0.315-5.314,1.58-7.214c-0.018,2.785,1.179,5.562,3.266,7.58
										c0.088-2.044,0.176-4.089,0.264-6.134c1.74,0.72,0.812,3.615,2.435,4.536c1.136,0.644,2.554-0.193,3.569-0.991
										c3.328-2.616,6.656-5.232,9.984-7.847c-1.481,6.946-4.949,13.525-9.96,18.896c-1.493,1.6-3.251,3.164-5.488,3.62
										c-3.33,0.68-6.581-1.262-9.21-3.262c-7.644-5.816-14.046-13.007-18.737-21.046c-1.891-3.241-3.505-6.613-5.009-10.021
										c-0.553-1.253-1.1-2.559-1.033-3.91c0.197-3.979,4.027-3.508,6.141-1.36c2.041,2.074,3.182,6.419,4.873,8.931
										C183.784,211.016,189.657,217.205,196.471,222.346z"/>
								</g>
								<path style="fill:#92E3A9;stroke:#263238;stroke-linecap:round;stroke-linejoin:round;" d="M288.952,202.201
									c0,0,8.959,20.153,17.583,28.037c7.21,6.59,25.867-1.624,13.69-17.7c-13.991-18.472-17.999-21.993-20.233-30.23
									c-2.656-9.794-7.485-11.989-7.485-11.989S281.465,180.234,288.952,202.201z"/>
								<path style="fill:none;stroke:#263238;stroke-linecap:round;stroke-linejoin:round;" d="M220.469,172.717
									c-0.372,1.761-18.255,37.341-19.605,38.044c-1.35,0.703-2.094,0.19-2.094,0.19l-19.905-22.678l-11.252,7.248
									c3.58,7.18,7.631,14.152,12.132,20.879c7.505,11.231,20.557,19.65,23.406,18.744c2.85-0.906,22.061-29.289,22.061-29.289"/>
							</g>
						</g>
					</g>
					<path style="fill:none;stroke:#263238;stroke-linecap:round;stroke-linejoin:round;" d="M244.107,162.91
						c-2.1,7.542-4.2,15.084-6.301,22.626c4.067,1.753,8.133,3.505,12.2,5.258c-2.899,3.039-5.12,6.622-6.486,10.465
						c5.396,5.097,10.792,10.193,16.188,15.29"/>
					<path style="fill:none;stroke:#263238;stroke-linecap:round;stroke-linejoin:round;" d="M269.831,217.85
						c3.716-3.908,7.433-7.815,11.149-11.723"/>
					<path style="fill:#FFFFFF;stroke:#263238;stroke-linecap:round;stroke-linejoin:round;" d="M264.107,224.005
						c-0.517,10.031-0.154,20.1,1.085,30.078"/>
					<g>
						<path style="fill:none;stroke:#263238;stroke-linecap:round;stroke-linejoin:round;" d="M227.91,181.793
							c1.995,6.935,1.421,14.512-1.817,21.049"/>
						<path style="fill:none;stroke:#263238;stroke-linecap:round;stroke-linejoin:round;" d="M226.76,178.533
							c0.184,0.438,0.357,0.88,0.52,1.326"/>
						<path style="fill:none;stroke:#263238;stroke-linecap:round;stroke-linejoin:round;" d="M224.478,174.18
							c0.49,0.767,0.941,1.554,1.353,2.357"/>
						<path style="fill:none;stroke:#263238;stroke-linecap:round;stroke-linejoin:round;" d="M242.596,227.635
							c11.742,2.616,23.997,3.266,35.988,1.91"/>
					</g>
				</g>
				<g>
					<g>
						<path style="fill:#999999;stroke:#263238;stroke-linecap:round;stroke-linejoin:round;stroke-miterlimit:10;" d="
							M266.514,168.544c0,0-13.205-5.665-12.408-7.957c1.91-5.362,0.207-10.006-1.713-15.388c1.211,2.127,2.811,3.9,5.151,5.433
							c1.504,0.986,3.069,1.651,4.657,2.028l0.008-0.002c2.226,0.533,4.479,0.5,6.615,0.004c-0.035,0.118-0.073,0.229-0.086,0.341
							c-0.226,0.79-0.321,1.598-0.313,2.408c-0.006,0.161-0.005,0.321,0.01,0.476l0.004,0.064c0.116,2.262,1.191,4.198,4.185,5.027
							C273.958,161.137,269.831,168.532,266.514,168.544z"/>
						<path style="fill:#263238;stroke:#263238;stroke-linecap:round;stroke-linejoin:round;" d="M268.825,152.662
							c-2.136,0.496-11.508-3.44-13.735-3.972c1.693,1.612,3.099,5.575,13.344,7.321l0.006-0.059l-0.004-0.064l0.024-0.521
							c0.003-0.798,0.097-1.584,0.279-2.363c0.028-0.116,0.056-0.232,0.093-0.343"/>
						
							<line style="fill:none;stroke:#263238;stroke-linecap:round;stroke-linejoin:round;" x1="268.832" y1="152.66" x2="268.825" y2="152.662"/>
					</g>
					<path style="fill:#FFFFFF;stroke:#263238;stroke-linecap:round;stroke-linejoin:round;" d="M280.488,146.595
						c0,0-5.39,3.788-8.902,5.719c-5.07,2.784-12.725,1.087-18.299-1.321c-2.551-1.099-6.382-2.646-6.382-2.646
						s-0.249-4.191-0.416-6.417c-1.161-1.962-3.167-5.539-5.968-11.186c-4.693-9.466,2.075-19.388,9.269-22.739
						c7.194-3.341,11.101,1.222,11.101,1.222l1.827,12.965l9.023-1.922l5.426,11.747c0,0-0.575,2.768,1.67,8.311
						C279.843,142.82,280.488,146.595,280.488,146.595z"/>
					<g>
						<path style="fill:#999999;stroke:#263238;stroke-linecap:round;stroke-linejoin:round;stroke-miterlimit:10;" d="
							M246.608,132.047c0,0-2.546-3.358-5.348-2.424c-2.802,0.933-1.928,5.602,0.089,7.93c2.017,2.329,5.053,2.938,5.777-0.021
							C247.55,135.696,247.37,133.787,246.608,132.047z"/>
						<path style="fill:#999999;stroke:#263238;stroke-linecap:round;stroke-linejoin:round;stroke-miterlimit:10;" d="
							M275.834,127.859c0,0,1.895-4.073,3.71-1.189c1.815,2.884,0.409,7.54-0.67,8.207c-1.079,0.667-2.351,0.203-2.649-1.721
							C275.999,131.398,275.868,129.63,275.834,127.859z"/>
						<path style="fill:#999999;stroke:#263238;stroke-linecap:round;stroke-linejoin:round;stroke-miterlimit:10;" d="
							M269.466,110.666c0,0-7.372-2.727-14.041-0.67c-6.669,2.057-10.091,6.576-9.271,9.514c0.82,2.938,2.322,5.925,2.595,11.021
							c0.273,5.096,1.357,12.821,7.033,15.114c5.677,2.293,7.009,2.238,7.497,0.989c0.298-0.763,0.594-1.64,1.255-2.275
							c0.421-0.404,2.964-0.715,3.312-0.356c0.701,0.725,0.921,2.04,1.547,2.558c0.936,0.775,3.474-1.455,6.297-4.781
							c2.823-3.327,1.867-8.658,0.617-13.318c-1.251-4.66-1.303-7.709-2.056-11.455
							C273.498,113.261,270.942,111.216,269.466,110.666z"/>
						<polyline style="fill:none;stroke:#263238;stroke-linecap:round;stroke-linejoin:round;" points="251.751,127.11 
							248.437,127.62 245.911,130.211 						"/>
						<path style="fill:none;stroke:#263238;stroke-linecap:round;stroke-linejoin:round;" d="M266.38,125.63
							c0,0,3.276,7.197,2.315,7.871c-0.961,0.674-4.695,1.848-5.65,0.352"/>
						<g>
							<path style="fill:#FFFFFF;stroke:#263238;stroke-linecap:round;stroke-linejoin:round;" d="M252.408,124.147
								c-0.149,0.001-0.3-0.028-0.443-0.09c-0.521-0.224-0.751-0.786-0.513-1.267c0.083-0.167,2.107-4.081,8.487-3.346
								c0.574,0.066,0.982,0.548,0.91,1.076c-0.072,0.528-0.609,0.902-1.17,0.836c-4.806-0.554-6.264,2.125-6.323,2.239
								C253.175,123.941,252.799,124.145,252.408,124.147z"/>
						</g>
						<g>
							<path style="fill:#FFFFFF;stroke:#263238;stroke-linecap:round;stroke-linejoin:round;" d="M274.445,122.499
								c0.146-0.025,0.289-0.079,0.418-0.164c0.466-0.309,0.579-0.901,0.248-1.333c-0.115-0.15-2.896-3.649-9.015-1.835
								c-0.551,0.163-0.854,0.706-0.677,1.213c0.178,0.506,0.781,0.782,1.319,0.621c4.61-1.367,6.584,1.016,6.666,1.118
								C273.65,122.428,274.06,122.564,274.445,122.499z"/>
						</g>
						<g>
							
								<line style="fill:none;stroke:#263238;stroke-linecap:round;stroke-linejoin:round;" x1="262.065" y1="125.794" x2="266.845" y2="125.221"/>
							<path style="fill:#92E3A9;stroke:#263238;stroke-linecap:round;stroke-linejoin:round;" d="M262.621,127.568
								c0.012,2.767-2.417,5.019-5.425,5.03c-3.008,0.011-5.457-2.223-5.469-4.99c-0.012-2.767,2.417-5.019,5.425-5.03
								C260.16,122.566,262.609,124.801,262.621,127.568z"/>
							<path style="fill:#92E3A9;stroke:#263238;stroke-linecap:round;stroke-linejoin:round;" d="M277.722,125.594
								c0.012,2.767-2.417,5.019-5.425,5.03c-3.008,0.011-5.457-2.223-5.469-4.99c-0.012-2.767,2.417-5.019,5.425-5.03
								C275.261,120.593,277.71,122.827,277.722,125.594z"/>
						</g>
						<path style="fill:#263238;" d="M258.112,127.722c0.004,0.937-0.353,1.717-0.894,1.748c-0.541,0.031-1.03-0.717-1.081-1.654
							c-0.051-0.937,0.353-1.717,0.894-1.741C257.572,126.051,258.061,126.785,258.112,127.722z"/>
						<path style="fill:#263238;" d="M271.352,126.333c0.051,0.937-0.353,1.717-0.894,1.741c-0.541,0.024-1.022-0.717-1.073-1.654
							c-0.051-0.937,0.345-1.717,0.894-1.741C270.827,124.655,271.301,125.388,271.352,126.333z"/>
					</g>
					<g>
						<path style="fill:#FFFFFF;stroke:#263238;stroke-linecap:round;stroke-linejoin:round;" d="M264.009,134.773
							c-4.193,0.584-7.734,3.961-8.217,7.836c3.601,1.47,8.286,0.09,10.289-3.031c2.978,2.822,6.326,2.352,9.049,1.401
							c-0.33-2.032-1.61-3.919-3.45-5.084c-1.839-1.166-4.212-1.594-6.394-1.154L264.009,134.773z"/>
					</g>
				</g>
				<g>
					<g>
						<path style="fill:#FFFFFF;stroke:#263238;stroke-linecap:round;stroke-linejoin:round;" d="M320.437,166.203l-8.13,32.981
							c0,0-11.007-2.343-15.478,0.699c-4.424,3.009-7.589,6.47-7.589,6.47l4.535-35.585
							C293.775,170.768,302.834,159.219,320.437,166.203z"/>
						<g>
							<path style="fill:#FFFFFF;stroke:#263238;stroke-linecap:round;stroke-linejoin:round;" d="M293.775,170.768l-4.535,35.585
								c0,0-12.637-10.764-22.908-5.138l-3.48,1.984l1.416-35.348C264.267,167.851,277.596,160.347,293.775,170.768z"/>
						</g>
					</g>
					<g>
						<path style="fill:#263238;stroke:#FFFFFF;stroke-miterlimit:10;" d="M289.23,206c8.839-3.344,17.425-6.816,25.163-1.417
							c1.888-9.715,5.1-19.072,7.328-28.72c1.785-7.729,1.903-6.406-2.622-8.293c-3.91-1.628-21.577-2.113-24.529,6.994
							C293.495,177.883,289.831,205.204,289.23,206z"/>
						<path style="fill:#263238;stroke:#FFFFFF;stroke-miterlimit:10;" d="M260.391,206.592c4.994-4.696,13.442-5.068,19.363-1.393
							c2.52,1.563,5.943,2.533,5.914,2.317l0.013-0.047l4.965-33.302c0.114,0.069,0.227,0.13,0.33,0.191
							c-2.006-4.831-10.444-6.64-15.663-6.417c-4.983,0.206-10.769,3.084-12.629,4.732
							C262.684,172.674,260.753,197.009,260.391,206.592z"/>
						<g>
							<path style="fill:#FFFFFF;stroke:#263238;stroke-linecap:round;stroke-linejoin:round;" d="M285.669,207.517
								c0,0,3.212,0.665,4.235-1.775l4.968-32.043c0,0-1.108,2.157-3.895,0.66c-0.103-0.061-0.216-0.122-0.33-0.191l-4.965,33.302
								C285.676,207.498,285.669,207.517,285.669,207.517z"/>
							<path style="fill:#263238;stroke:#FFFFFF;stroke-miterlimit:10;" d="M285.669,207.517c0,0,3.212,0.665,4.235-1.775
								l4.968-32.043c0,0-1.108,2.157-3.895,0.66c-0.103-0.061-0.216-0.122-0.33-0.191l-4.965,33.302
								C285.676,207.498,285.669,207.517,285.669,207.517z"/>
						</g>
					</g>
				</g>
				<polyline style="fill:none;stroke:#263238;stroke-linecap:round;stroke-linejoin:round;" points="309.421,203.541 
					306.457,206.086 300.945,210.819 297.511,213.771 				"/>
				<path style="fill:none;stroke:#263238;stroke-linecap:round;stroke-linejoin:round;" d="M240.853,307.852
					c2.257,37.244-3.004,74.657-2.822,116.677"/>
				<path style="fill:none;stroke:#263238;stroke-linecap:round;stroke-linejoin:round;" d="M277.283,308.431
					c-0.563,27.953-9.361,66.182-10.466,104.268"/>
				<g>
					<g>
						<g>
							<path style="fill:#999999;stroke:#263238;stroke-linecap:round;stroke-linejoin:round;stroke-miterlimit:10;" d="
								M307.502,205.41l-5.997,5.15l-0.706,0.307c-2.557-6.073-3.042-7.508-3.042-7.508s0,0.01-0.023,0l-0.012,0
								c-0.023,0-0.034-0.01-0.08-0.01c-0.422-0.072-1.997-0.402-3.414-1.214c-0.274-0.146-0.537-0.323-0.789-0.511
								c-0.126-0.094-0.252-0.198-0.378-0.303c-0.115-0.115-0.218-0.23-0.344-0.345c-1.202-1.17-1.994-2.426-2.523-3.514l0-0.01
								c-0.725-1.497-0.935-2.671-0.959-2.901l-0.012-0.042c-1.018-0.877-2.54-2.067-3.126-3.229
								c-0.161-0.387-0.312-0.89-0.451-1.414c-0.023-0.063-0.035-0.126-0.058-0.189c-0.069-0.262-0.128-0.545-0.197-0.817
								c-0.302-1.299-0.547-2.609-0.743-3.101l-0.012-0.042c0,0,0,0-0.011-0.01c-0.254-0.765-0.212-1.583,0.104-2.318
								c0.113-0.242,0.249-0.473,0.43-0.694c0.034-0.063,0.091-0.105,0.159-0.158c0.92-0.758,3.555-0.516,3.817-0.496l-0.012-0.01
								l-1.04-0.489l-1.565-0.739c0,0-2.806-0.294-3.412-0.795c-0.561-0.459-0.576-1.256-0.064-1.573
								c0.057-0.021,0.114-0.053,0.171-0.074c0.102-0.032,0.285-0.074,0.501-0.117c0.33-0.064,0.786-0.108,1.288-0.12
								c0.011-0.01,1.847-0.017,1.847-0.017c1.824-0.007,3.436,1.036,4.248,1.474c2.88,1.542,6.009,2.862,6.597,4.328
								c0.553,1.372,2.943,8.316,5.086,13.499c0.184,0.45,0.369,0.9,0.587,1.34c0.668,1.497,1.449,2.941,2.333,4.228
								C306.229,203.737,306.837,204.553,307.502,205.41z"/>
						</g>
						<path style="fill:none;stroke:#263238;stroke-linecap:round;stroke-linejoin:round;" d="M292.246,190.808l-4.134-2.316
							c-1.642-0.297-2.717,0.367-2.717,0.367"/>
						<path style="fill:none;stroke:#263238;stroke-linecap:round;stroke-linejoin:round;" d="M293.944,188.092
							c0,0-4.405-2.312-5.812-2.897c-0.868-0.343-2.824-0.014-3.549,0.543"/>
						<path style="fill:#FFFFFF;stroke:#263238;stroke-linecap:round;stroke-linejoin:round;" d="M289.165,182.036
							c0,0,5.686,2.601,6.099,3.133"/>
					</g>
					<path style="fill:#999999;stroke:#263238;stroke-linecap:round;stroke-linejoin:round;stroke-miterlimit:10;" d="
						M288.019,190.824c1.134,1.678,1.62,5.088,2.18,6.641"/>
				</g>
			</g>
			<path style="fill:none;stroke:#263238;stroke-linecap:round;stroke-linejoin:round;" d="M272.236,225.476
				c0,1.1-0.97,1.992-2.165,1.992c-1.196,0-2.165-0.892-2.165-1.992s0.969-1.992,2.165-1.992
				C271.266,223.484,272.236,224.376,272.236,225.476z"/>
		</g>
	</g>
</g>
<g id="Formula">
	<g>
		<g>
			<g>
				<path style="fill:#FFFFFF;stroke:#263238;stroke-linecap:round;stroke-linejoin:round;stroke-miterlimit:10;" d="
					M348.668,96.283V59.599c0-3.695-2.995-6.69-6.69-6.69h-57.551c-3.695,0-6.69,2.995-6.69,6.69v36.684
					c0,3.695,2.996,6.69,6.69,6.69h20.037l-1.618,8.88h10.357l-2.314,15.71l14.555-21.489h-10.043l1.062-3.101h25.516
					C345.672,102.973,348.668,99.978,348.668,96.283z"/>
			</g>
		</g>
		<g>
			<line style="fill:#263238;stroke:#263238;stroke-miterlimit:10;" x1="316.158" y1="77.733" x2="344.52" y2="77.733"/>
			<g>
				<g>
					<path style="fill:#263238;" d="M283.85,74.915h2.115v1.489h-2.115v4.304h-1.638V70.283h4.334v1.489h-2.696V74.915z"/>
					<path style="fill:#263238;" d="M294.422,73.709v1.162h-4.855v-1.162H294.422z M294.422,76.121v1.162h-4.855v-1.162H294.422z"/>
				</g>
				<g>
					<g>
						<path style="fill:#263238;" d="M322.353,72.377l0.856-5.672h1.746v7.989h-1.186v-5.729l-0.867,5.729h-1.188l-0.936-5.65v5.65
							h-1.096v-7.989h1.746L322.353,72.377z"/>
						<path style="fill:#263238;" d="M326.642,67.709c0.971,0,1.188-0.468,1.381-1.004h0.845v7.989h-1.255V68.6h-0.971V67.709z"/>
						<path style="fill:#263238;" d="M331.593,73.484v1.21h-1.21v-1.21H331.593z"/>
						<path style="fill:#263238;" d="M335.165,72.377l0.855-5.672h1.746v7.989h-1.187v-5.729l-0.867,5.729h-1.188l-0.936-5.65v5.65
							h-1.096v-7.989h1.746L335.165,72.377z"/>
						<path style="fill:#263238;" d="M340.515,67.755c-0.399,0-0.65,0.217-0.65,0.788v0.856h-1.187v-0.776
							c0-1.278,0.639-2.009,1.871-2.009c1.232,0,1.872,0.731,1.872,2.009c0,2.511-2.5,3.447-2.5,4.76c0,0.057,0,0.114,0.012,0.171
							h2.374v1.142h-3.629v-0.981c0-2.352,2.487-2.739,2.487-5.045C341.165,67.949,340.914,67.755,340.515,67.755z"/>
					</g>
					<g>
						<path style="fill:#263238;" d="M329.332,88.845c-0.068-0.206-0.114-0.331-0.114-0.981v-1.256c0-0.742-0.251-1.016-0.822-1.016
							h-0.434v3.253h-1.255v-7.989h1.895c1.301,0,1.86,0.604,1.86,1.837v0.627c0,0.822-0.263,1.358-0.822,1.621
							c0.628,0.262,0.833,0.867,0.833,1.701v1.232c0,0.388,0.012,0.673,0.138,0.97H329.332z M327.962,81.997v2.454h0.491
							c0.468,0,0.753-0.206,0.753-0.845v-0.788c0-0.571-0.194-0.822-0.639-0.822H327.962z"/>
						<path style="fill:#263238;" d="M333.13,81.905c-0.399,0-0.65,0.217-0.65,0.788v0.856h-1.186v-0.776
							c0-1.278,0.639-2.009,1.871-2.009c1.232,0,1.872,0.73,1.872,2.009c0,2.511-2.5,3.447-2.5,4.76c0,0.057,0,0.114,0.012,0.171
							h2.374v1.142h-3.629v-0.981c0-2.352,2.487-2.739,2.487-5.045C333.78,82.099,333.529,81.905,333.13,81.905z"/>
					</g>
					<g>
						<path style="fill:#263238;" d="M307.515,74.409h1.758v2.534c0,1.278-0.64,2.009-1.872,2.009s-1.872-0.73-1.872-2.009v-4.154
							c0-1.278,0.64-2.009,1.872-2.009s1.872,0.731,1.872,2.009v0.776h-1.188v-0.856c0-0.571-0.251-0.788-0.65-0.788
							s-0.65,0.217-0.65,0.788v4.314c0,0.57,0.251,0.776,0.65,0.776s0.65-0.206,0.65-0.776V75.55h-0.57V74.409z"/>
					</g>
				</g>
			</g>
		</g>
	</g>
</g>
<g id="Table">
	<g>
		<g>
			<g>
				<g>
					<polygon style="fill:#92E3A9;stroke:#263238;stroke-miterlimit:10;" points="446.055,463.661 339.503,463.661 331.016,272.932 
						454.37,272.932 					"/>
					<polygon style="fill:#C9CCCD;stroke:#263238;stroke-linecap:round;stroke-linejoin:round;" points="460.063,272.99 
						324.49,272.99 325.089,264.808 459.463,264.808 					"/>
				</g>
				<polygon style="opacity:0.2;" points="437.777,452.092 349.03,452.092 342.775,285.131 443.777,285.131 				"/>
			</g>
		</g>
		<g>
			<g>
				<path style="fill:none;stroke:#263238;stroke-miterlimit:10;" d="M447.609,260.968v-34.092c0-2.848-1.964-5.157-4.387-5.157
					h-35.929c-2.423,0-4.387,2.309-4.387,5.157v34.092"/>
				<g>
					<polygon style="fill:#FFFFFF;stroke:#263238;stroke-miterlimit:10;" points="396.119,264.514 402.905,257.728 409.692,264.514 
											"/>
				</g>
				<g>
					<polygon style="fill:#FFFFFF;stroke:#263238;stroke-miterlimit:10;" points="440.822,264.514 447.609,257.728 454.395,264.514 
											"/>
				</g>
			</g>
			
				<line style="fill:#999999;stroke:#263238;stroke-linecap:round;stroke-linejoin:round;stroke-miterlimit:10;" x1="421.603" y1="221.719" x2="421.603" y2="249.669"/>
			<g>
				<g>
					<path style="fill:#999999;stroke:#263238;stroke-linecap:round;stroke-linejoin:round;stroke-miterlimit:10;" d="
						M394.101,251.24c-2.015,0-3.648-1.633-3.648-3.648c0-2.015,1.633-3.648,3.648-3.648c2.015,0,3.648,1.633,3.648,3.648
						C397.749,249.607,396.116,251.24,394.101,251.24z"/>
					<g>
						
							<line style="fill:#999999;stroke:#263238;stroke-linecap:round;stroke-linejoin:round;stroke-miterlimit:10;" x1="396.225" y1="244.63" x2="413.973" y2="222.116"/>
					</g>
				</g>
				<path style="fill:#999999;stroke:#263238;stroke-linecap:round;stroke-linejoin:round;stroke-miterlimit:10;" d="
					M421.603,256.965c-2.015,0-3.648-1.633-3.648-3.648c0-2.015,1.633-3.648,3.648-3.648c2.015,0,3.648,1.633,3.648,3.648
					C425.251,255.331,423.618,256.965,421.603,256.965z"/>
				<g>
					<path style="fill:#999999;stroke:#263238;stroke-linecap:round;stroke-linejoin:round;stroke-miterlimit:10;" d="
						M429.107,256.965c-2.015,0-3.648-1.633-3.648-3.648c0-2.015,1.633-3.648,3.648-3.648c2.015,0,3.648,1.633,3.648,3.648
						C432.755,255.331,431.122,256.965,429.107,256.965z"/>
					
						<line style="fill:#999999;stroke:#263238;stroke-linecap:round;stroke-linejoin:round;stroke-miterlimit:10;" x1="429.109" y1="221.719" x2="429.109" y2="249.669"/>
				</g>
				<g>
					<path style="fill:#999999;stroke:#263238;stroke-linecap:round;stroke-linejoin:round;stroke-miterlimit:10;" d="
						M436.611,256.965c-2.015,0-3.648-1.633-3.648-3.648c0-2.015,1.633-3.648,3.648-3.648s3.648,1.633,3.648,3.648
						C440.259,255.331,438.626,256.965,436.611,256.965z"/>
					
						<line style="fill:#999999;stroke:#263238;stroke-linecap:round;stroke-linejoin:round;stroke-miterlimit:10;" x1="436.616" y1="221.719" x2="436.616" y2="249.669"/>
				</g>
			</g>
		</g>
		<g>
			<g>
				<g>
					<path style="fill:#92E3A9;stroke:#263238;stroke-linecap:round;stroke-linejoin:round;" d="M372.95,211.906
						c-0.49-2.032-1.671-4.191-3.713-4.634c-2.2-0.478-4.22,1.221-5.832,2.792c-0.926-3.433-5.143-5.337-8.538-4.282
						c-3.395,1.055-5.716,4.494-6.067,8.032c-0.351,3.538,1.02,7.084,3.127,9.947c2.076,2.822,4.386,4.121,7.831,3.432
						c2.477-0.495,4.537,0.177,6.916-0.105C372.533,226.392,374.035,216.407,372.95,211.906z"/>
					<path style="fill:#263238;" d="M363.829,202.685c0.254,0.405,0.964-0.116,1.383-0.394c-0.654,1.658-0.6,5.493-1.078,7.195
						c-0.221,0.786-1.093,0.361-1.212,0.22C363.244,206.216,363.415,202.024,363.829,202.685z"/>
					<path style="fill:#263238;" d="M365.894,203.064c0.928-0.738,2.001-1.256,3.064-1.768c-0.184,1.256-0.416,2.554-1.133,3.594
						c-0.714,1.037-1.894,1.725-3.127,1.823C362.388,206.896,365.244,203.58,365.894,203.064z"/>
				</g>
				<g>
					<path style="fill:#FFFFFF;" d="M356.4,208.112c-0.58-0.396-1.517,0.046-1.583,0.746c-0.066,0.7,0.763,1.311,1.413,1.043
						c0.65-0.267,0.814-1.278,0.284-1.74L356.4,208.112z"/>
				</g>
				<path style="fill:#FFFFFF;" d="M353.646,222.123c0.111,0.13,0.239,0.265,0.407,0.297c0.32,0.059,0.583-0.307,0.561-0.632
					c-0.023-0.324-0.227-0.602-0.405-0.875c-1.166-1.792-1.36-4.176-0.501-6.133c0.218-0.497,0.501-0.971,0.636-1.496
					c0.321-1.245-0.688-2.414-1.877-1.688c-0.906,0.554-1.034,2.48-1.099,3.387C351.187,217.533,351.978,220.17,353.646,222.123z"/>
			</g>
			<g>
				<g>
					<g>
						<path style="fill:#263238;" d="M338.972,229.813v8.587c-0.939,0-0.94,1.644,0,1.644c2.904,0,5.81,0.022,8.716,0.042v-11.918
							c-2.905,0-5.811,0-8.716,0C338.033,228.169,338.031,229.813,338.972,229.813z"/>
					</g>
				</g>
				<path style="fill:#58E3A8;" d="M344.135,228.805h37.377c1.614,0,2.922,2.29,2.922,5.116c0,2.825-1.308,5.116-2.922,5.116
					h-37.377V228.805z"/>
				<path style="fill:#FFFFFF;stroke:#263238;stroke-linecap:round;stroke-linejoin:round;" d="M344.135,228.805h37.377
					c1.614,0,2.922,2.29,2.922,5.116c0,2.825-1.308,5.116-2.922,5.116h-37.377V228.805z"/>
				<g>
					<g>
						<path style="fill:#FFFFFF;stroke:#263238;stroke-linecap:round;stroke-linejoin:round;" d="M344.135,239.858
							c7.685,0,29.286,0.156,36.969,0c5.263-0.107,5.546-11.477,0.384-11.876c-3.599-0.278-7.301,0-10.906,0
							c-4.181,0-22.266,0-26.447,0c-0.939,0-0.94,1.644,0,1.644c7.284,0,28.471,0,35.755,0c1.686,0,2.892,0.021,3.543,2.262
							c0.564,1.939,0.386,5.897-1.921,6.325c-0.249,0.046-0.541,0-0.791,0c-3.971,0-7.943,0-11.914,0c-3.59,0-21.083,0-24.672,0
							C343.197,238.214,343.195,239.858,344.135,239.858L344.135,239.858z"/>
					</g>
				</g>
				<g>
					<g>
						<path style="fill:#263238;" d="M340.272,242.741v7.953c-0.87,0-0.871,1.523,0,1.523c2.689,0,5.381,0.021,8.072,0.038v-11.037
							c-2.691,0-5.381,0-8.072,0C339.402,241.218,339.401,242.741,340.272,242.741z"/>
					</g>
				</g>
				<path style="fill:#58E3A8;" d="M345.04,241.793h34.615c1.494,0,2.706,2.121,2.706,4.738c0,2.617-1.211,4.738-2.706,4.738H345.04
					V241.793z"/>
				<path style="fill:#FFFFFF;stroke:#263238;stroke-linecap:round;stroke-linejoin:round;" d="M345.04,241.793h34.615
					c1.494,0,2.706,2.121,2.706,4.738c0,2.617-1.211,4.738-2.706,4.738H345.04V241.793z"/>
				<g>
					<g>
						<path style="fill:#FFFFFF;stroke:#263238;stroke-linecap:round;stroke-linejoin:round;" d="M379.655,250.507
							c-0.209,0.117-0.501,0-0.732,0c-3.678,0-7.356,0-11.034,0c-3.324,0-19.525,0-22.849,0c-0.869,0-0.871,1.523,0,1.523l0,0
							c7.117,0,27.122,0.145,34.238,0c4.874-0.099,5.136-10.629,0.355-10.999c-3.333-0.258-6.761,0-10.1,0
							c-3.872,0-20.621,0-24.493,0c-0.869,0-0.871,1.523,0,1.523c6.746,0,26.367,0,33.113,0c1.561,0,2.678,0.02,3.281,2.095
							C381.434,244.649,382.433,248.95,379.655,250.507z"/>
					</g>
				</g>
				<g>
					<g>
						<path style="fill:#263238;" d="M336.248,254.895v8.398c-1.035,0-1.037,1.608,0,1.608c3.201,0,6.403,0.022,9.606,0.041v-11.655
							c-3.202,0-6.404,0-9.606,0C335.213,253.287,335.212,254.895,336.248,254.895z"/>
					</g>
				</g>
				<path style="fill:#58E3A8;" d="M341.958,253.904h41.193c1.778,0,3.22,2.24,3.22,5.003c0,2.763-1.442,5.003-3.22,5.003h-41.193
					V253.904z"/>
				<path style="fill:#FFFFFF;stroke:#263238;stroke-linecap:round;stroke-linejoin:round;" d="M341.958,253.904h41.193
					c1.778,0,3.22,2.24,3.22,5.003c0,2.763-1.442,5.003-3.22,5.003h-41.193V253.904z"/>
				<g>
					<g>
						<path style="fill:#FFFFFF;stroke:#263238;stroke-linecap:round;stroke-linejoin:round;" d="M341.958,264.715
							c8.47,0,32.277,0.153,40.745,0c5.801-0.104,6.113-11.224,0.423-11.614c-3.966-0.272-8.046,0-12.02,0
							c-4.608,0-24.54,0-29.148,0c-1.035,0-1.036,1.608,0,1.608c8.028,0,31.379,0,39.406,0c1.858,0,3.187,0.021,3.905,2.212
							c0.621,1.897,0.425,5.767-2.118,6.186c-0.274,0.045-0.596,0-0.872,0c-4.377,0-8.754,0-13.13,0c-3.956,0-23.235,0-27.191,0
							C340.923,263.107,340.921,264.715,341.958,264.715L341.958,264.715z"/>
					</g>
				</g>
			</g>
		</g>
	</g>
</g>
</svg>
